<svg width="29" height="29" viewBox="0 0 29 29" fill="none" xmlns="http://www.w3.org/2000/svg">
<g clip-path="url(#clip0_696_1744)">
<path d="M22.8667 17.9247C22.2744 17.3079 21.5598 16.9781 20.8026 16.9781C20.0514 16.9781 19.3307 17.3018 18.7139 17.9186L16.7841 19.8423C16.6253 19.7568 16.4665 19.6774 16.3139 19.598C16.094 19.4881 15.8864 19.3843 15.7093 19.2744C13.9016 18.1262 12.2588 16.63 10.6832 14.6941C9.91977 13.7292 9.40678 12.9169 9.03425 12.0925C9.53503 11.6344 9.99917 11.1581 10.4511 10.7001C10.6221 10.5291 10.7931 10.352 10.9641 10.181C12.2466 8.89848 12.2466 7.23736 10.9641 5.95488L9.29685 4.28765C9.10753 4.09833 8.91211 3.9029 8.7289 3.70748C8.36247 3.32884 7.97773 2.93799 7.58077 2.57157C6.98839 1.98529 6.27997 1.67383 5.53491 1.67383C4.78984 1.67383 4.06921 1.98529 3.45851 2.57157C3.4524 2.57767 3.4524 2.57767 3.44629 2.58378L1.36989 4.6785C0.588189 5.4602 0.142374 6.41291 0.0446609 7.51828C-0.101909 9.30154 0.423298 10.9627 0.826364 12.0497C1.81571 14.7185 3.29362 17.1919 5.49826 19.8423C8.17315 23.0363 11.3916 25.5585 15.068 27.3357C16.4726 28.0014 18.3475 28.7892 20.4422 28.9235C20.5705 28.9296 20.7048 28.9357 20.827 28.9357C22.2377 28.9357 23.4225 28.4289 24.3508 27.4212C24.3569 27.409 24.3691 27.4029 24.3752 27.3907C24.6927 27.0059 25.0592 26.6578 25.4439 26.2853C25.7065 26.0349 25.9752 25.7723 26.2378 25.4975C26.8424 24.8684 27.16 24.1356 27.16 23.3844C27.16 22.6271 26.8363 21.9004 26.2195 21.2897L22.8667 17.9247ZM25.0531 24.3554C25.047 24.3554 25.047 24.3616 25.0531 24.3554C24.8149 24.6119 24.5706 24.844 24.308 25.1005C23.911 25.4791 23.508 25.8761 23.1293 26.3219C22.5125 26.9815 21.7858 27.2929 20.8331 27.2929C20.7415 27.2929 20.6438 27.2929 20.5522 27.2868C18.7384 27.1708 17.0528 26.4624 15.7887 25.8578C12.3321 24.1844 9.29685 21.8088 6.77464 18.798C4.69213 16.288 3.29972 13.9673 2.37756 11.4757C1.8096 9.955 1.60196 8.77023 1.69357 7.65264C1.75464 6.93811 2.02945 6.34573 2.53634 5.83884L4.61885 3.75634C4.91809 3.47541 5.23566 3.32273 5.54712 3.32273C5.93187 3.32273 6.24332 3.5548 6.43875 3.75023C6.44486 3.75634 6.45096 3.76244 6.45707 3.76855C6.8296 4.11665 7.18381 4.47697 7.55634 4.86171C7.74566 5.05714 7.94109 5.25256 8.13651 5.4541L9.80374 7.12133C10.4511 7.76867 10.4511 8.36716 9.80374 9.01451C9.62663 9.19162 9.45564 9.36872 9.27853 9.53972C8.76554 10.0649 8.27698 10.5535 7.74566 11.0298C7.73345 11.0421 7.72123 11.0482 7.71513 11.0604C7.18992 11.5856 7.28763 12.0986 7.39756 12.4467C7.40367 12.465 7.40977 12.4833 7.41588 12.5016C7.84948 13.5521 8.46019 14.5414 9.38846 15.7201L9.39457 15.7262C11.0801 17.8026 12.8573 19.4209 14.8176 20.6607C15.068 20.8195 15.3245 20.9477 15.5688 21.0698C15.7887 21.1798 15.9963 21.2836 16.1734 21.3935C16.1978 21.4057 16.2223 21.4241 16.2467 21.4363C16.4543 21.5401 16.6498 21.5889 16.8513 21.5889C17.3582 21.5889 17.6757 21.2714 17.7796 21.1676L19.8682 19.0789C20.0758 18.8713 20.4056 18.6209 20.7903 18.6209C21.169 18.6209 21.4804 18.8591 21.6698 19.0667C21.6759 19.0728 21.6759 19.0728 21.682 19.0789L25.047 22.4439C25.676 23.0669 25.676 23.7081 25.0531 24.3554Z" fill="url(#paint0_linear_696_1744)"/>
<path d="M15.6357 6.88307C17.2357 7.15178 18.6892 7.90906 19.8495 9.0694C21.0099 10.2297 21.761 11.6832 22.0359 13.2833C22.103 13.6863 22.4511 13.9673 22.8481 13.9673C22.897 13.9673 22.9397 13.9612 22.9886 13.955C23.4405 13.8818 23.7397 13.4543 23.6664 13.0023C23.3367 11.0664 22.4206 9.30147 21.0221 7.90295C19.6236 6.50444 17.8586 5.58838 15.9227 5.2586C15.4708 5.18531 15.0494 5.48456 14.97 5.93037C14.8906 6.37619 15.1837 6.80979 15.6357 6.88307Z" fill="url(#paint1_linear_696_1744)"/>
<path d="M28.8967 12.7641C28.3531 9.57622 26.8508 6.67537 24.5423 4.3669C22.2339 2.05843 19.333 0.556097 16.1451 0.0125692C15.6993 -0.0668225 15.2779 0.23853 15.1985 0.684346C15.1252 1.13627 15.4245 1.55765 15.8764 1.63705C18.7223 2.1195 21.3178 3.46916 23.382 5.52724C25.4462 7.59143 26.7897 10.1869 27.2722 13.0328C27.3394 13.4359 27.6875 13.7168 28.0844 13.7168C28.1333 13.7168 28.176 13.7107 28.2249 13.7046C28.6707 13.6374 28.9761 13.2099 28.8967 12.7641Z" fill="url(#paint2_linear_696_1744)"/>
</g>
<defs>
<linearGradient id="paint0_linear_696_1744" x1="13.5898" y1="28.9357" x2="13.5898" y2="1.67383" gradientUnits="userSpaceOnUse">
<stop stop-color="#000E38"/>
<stop offset="1" stop-color="#3F186A"/>
</linearGradient>
<linearGradient id="paint1_linear_696_1744" x1="19.3173" y1="13.9673" x2="19.3173" y2="5.24756" gradientUnits="userSpaceOnUse">
<stop stop-color="#000E38"/>
<stop offset="1" stop-color="#3F186A"/>
</linearGradient>
<linearGradient id="paint2_linear_696_1744" x1="22.0484" y1="13.7168" x2="22.0484" y2="0" gradientUnits="userSpaceOnUse">
<stop stop-color="#000E38"/>
<stop offset="1" stop-color="#3F186A"/>
</linearGradient>
<clipPath id="clip0_696_1744">
<rect width="28.9356" height="28.9356" fill="white"/>
</clipPath>
</defs>
</svg>
