<svg width="30" height="30" viewBox="0 0 30 30" fill="none" xmlns="http://www.w3.org/2000/svg">
<g clip-path="url(#clip0_696_1763)">
<path d="M16.8315 29.6562H12.073C11.2782 29.6562 10.6316 29.0096 10.6316 28.2148V17.4818H7.85543C7.06062 17.4818 6.41406 16.835 6.41406 16.0405V11.4414C6.41406 10.6465 7.06062 9.99998 7.85543 9.99998H10.6316V7.69692C10.6316 5.41335 11.3487 3.47051 12.705 2.07879C14.0675 0.680716 15.9716 -0.0581055 18.2114 -0.0581055L21.8405 -0.0522112C22.6339 -0.050851 23.2793 0.595703 23.2793 1.38916V5.65932C23.2793 6.45414 22.633 7.10069 21.8384 7.10069L19.395 7.1016C18.6499 7.1016 18.4601 7.25099 18.4195 7.29679C18.3526 7.37273 18.2731 7.58742 18.2731 8.18025V9.99976H21.6548C21.9094 9.99976 22.156 10.0626 22.368 10.1809C22.8252 10.4364 23.1095 10.9195 23.1095 11.4416L23.1077 16.0407C23.1077 16.835 22.4612 17.4816 21.6663 17.4816H18.2731V28.2148C18.2731 29.0096 17.6263 29.6562 16.8315 29.6562ZM12.3736 27.9142H16.5309V16.702C16.5309 16.1713 16.9627 15.7396 17.4932 15.7396H21.3657L21.3673 11.742H17.493C16.9625 11.742 16.5309 11.3103 16.5309 10.7796V8.18025C16.5309 7.49969 16.6 6.72573 17.1137 6.14401C17.7344 5.44078 18.7126 5.35962 19.3946 5.35962L21.5374 5.35871V1.68931L18.21 1.68387C14.6105 1.68387 12.3736 3.98807 12.3736 7.69692V10.7796C12.3736 11.3101 11.942 11.742 11.4115 11.742H8.15604V15.7396H11.4115C11.942 15.7396 12.3736 16.1713 12.3736 16.702V27.9142Z" fill="url(#paint0_linear_696_1763)"/>
</g>
<defs>
<linearGradient id="paint0_linear_696_1763" x1="14.8467" y1="29.6562" x2="14.8467" y2="-0.0581055" gradientUnits="userSpaceOnUse">
<stop stop-color="#000E38"/>
<stop offset="1" stop-color="#3F186A"/>
</linearGradient>
<clipPath id="clip0_696_1763">
<rect width="29.6563" height="29.7143" fill="white"/>
</clipPath>
</defs>
</svg>
