<svg width="30" height="30" viewBox="0 0 30 30" fill="none" xmlns="http://www.w3.org/2000/svg">
<g clip-path="url(#clip0_696_1756)">
<path d="M21.6709 0H8.04337C3.60818 0 0 3.60818 0 8.04337V21.6711C0 26.106 3.60818 29.7142 8.04337 29.7142H21.6711C26.106 29.7142 29.7142 26.106 29.7142 21.6711V8.04337C29.7142 3.60818 26.106 0 21.6709 0ZM27.9723 21.6711C27.9723 25.1455 25.1455 27.9723 21.6709 27.9723H8.04337C4.56872 27.9723 1.74197 25.1455 1.74197 21.6711V8.04337C1.74197 4.56872 4.56872 1.74197 8.04337 1.74197H21.6711C25.1455 1.74197 27.9723 4.56872 27.9723 8.04337V21.6711Z" fill="url(#paint0_linear_696_1756)"/>
<path d="M14.8552 6.73242C10.3751 6.73242 6.73047 10.3771 6.73047 14.8572C6.73047 19.3373 10.3751 22.9819 14.8552 22.9819C19.3353 22.9819 22.98 19.3373 22.98 14.8572C22.98 10.3771 19.3353 6.73242 14.8552 6.73242ZM14.8552 21.24C11.3359 21.24 8.47244 18.3767 8.47244 14.8572C8.47244 11.3379 11.3359 8.4744 14.8552 8.4744C18.3748 8.4744 21.238 11.3379 21.238 14.8572C21.238 18.3767 18.3748 21.24 14.8552 21.24Z" fill="url(#paint1_linear_696_1756)"/>
<path d="M23.1781 3.84668C21.8542 3.84668 20.7773 4.92374 20.7773 6.24745C20.7773 7.57139 21.8542 8.64845 23.1781 8.64845C24.5021 8.64845 25.5791 7.57139 25.5791 6.24745C25.5791 4.92351 24.5021 3.84668 23.1781 3.84668ZM23.1781 6.90624C22.8149 6.90624 22.5193 6.61063 22.5193 6.24745C22.5193 5.88405 22.8149 5.58865 23.1781 5.58865C23.5415 5.58865 23.8371 5.88405 23.8371 6.24745C23.8371 6.61063 23.5415 6.90624 23.1781 6.90624Z" fill="url(#paint2_linear_696_1756)"/>
</g>
<defs>
<linearGradient id="paint0_linear_696_1756" x1="14.8571" y1="29.7142" x2="14.8571" y2="0" gradientUnits="userSpaceOnUse">
<stop stop-color="#000E38"/>
<stop offset="1" stop-color="#3F186A"/>
</linearGradient>
<linearGradient id="paint1_linear_696_1756" x1="14.8552" y1="22.9819" x2="14.8552" y2="6.73242" gradientUnits="userSpaceOnUse">
<stop stop-color="#000E38"/>
<stop offset="1" stop-color="#3F186A"/>
</linearGradient>
<linearGradient id="paint2_linear_696_1756" x1="23.1782" y1="8.64845" x2="23.1782" y2="3.84668" gradientUnits="userSpaceOnUse">
<stop stop-color="#000E38"/>
<stop offset="1" stop-color="#3F186A"/>
</linearGradient>
<clipPath id="clip0_696_1756">
<rect width="29.7143" height="29.7143" fill="white"/>
</clipPath>
</defs>
</svg>
