<svg width="30" height="30" viewBox="0 0 30 30" fill="none" xmlns="http://www.w3.org/2000/svg">
<g clip-path="url(#clip0_696_1726)">
<path d="M14.8577 29.7143C14.7116 29.7143 14.5655 29.6623 14.4479 29.5595C14.0096 29.172 3.71484 19.9878 3.71484 11.1429C3.71484 4.99819 8.71427 0 14.8577 0C21.0011 0 26.0006 4.99819 26.0006 11.1429C26.0006 19.9878 15.7058 29.172 15.2675 29.5595C15.1499 29.6623 15.0038 29.7143 14.8577 29.7143ZM14.8577 1.2381C9.39646 1.2381 4.95294 5.68162 4.95294 11.1429C4.95294 18.4699 12.9399 26.4432 14.8577 28.2521C16.7755 26.4432 24.7625 18.4699 24.7625 11.1429C24.7625 5.68162 20.3189 1.2381 14.8577 1.2381Z" fill="url(#paint0_linear_696_1726)"/>
<path d="M14.8584 17.3331C11.445 17.3331 8.66797 14.5561 8.66797 11.1426C8.66797 7.7292 11.445 4.95215 14.8584 4.95215C18.2719 4.95215 21.0489 7.7292 21.0489 11.1426C21.0489 14.5561 18.2719 17.3331 14.8584 17.3331ZM14.8584 6.19024C12.1272 6.19024 9.90606 8.41139 9.90606 11.1426C9.90606 13.8739 12.1272 16.095 14.8584 16.095C17.5897 16.095 19.8108 13.8739 19.8108 11.1426C19.8108 8.41139 17.5897 6.19024 14.8584 6.19024Z" fill="url(#paint1_linear_696_1726)"/>
</g>
<defs>
<linearGradient id="paint0_linear_696_1726" x1="14.8577" y1="29.7143" x2="14.8577" y2="0" gradientUnits="userSpaceOnUse">
<stop stop-color="#000E38"/>
<stop offset="1" stop-color="#3F186A"/>
</linearGradient>
<linearGradient id="paint1_linear_696_1726" x1="14.8584" y1="17.3331" x2="14.8584" y2="4.95215" gradientUnits="userSpaceOnUse">
<stop stop-color="#000E38"/>
<stop offset="1" stop-color="#3F186A"/>
</linearGradient>
<clipPath id="clip0_696_1726">
<rect width="29.7143" height="29.7143" fill="white"/>
</clipPath>
</defs>
</svg>
