<svg width="30" height="30" viewBox="0 0 30 30" fill="none" xmlns="http://www.w3.org/2000/svg">
<g clip-path="url(#clip0_696_1768)">
<path d="M23.8054 3.94189H5.9089C2.65064 3.94189 0 6.60102 0 9.86898V19.8451C0 23.1137 2.65064 25.7722 5.9089 25.7722H23.8054C27.0636 25.7722 29.7143 23.1131 29.7143 19.8451V9.86898C29.7143 6.60102 27.0636 3.94189 23.8054 3.94189ZM28.5015 19.8457C28.5015 22.4454 26.3948 24.56 23.8054 24.56H5.9089C3.31951 24.56 1.21283 22.4448 1.21283 19.8457V9.86898C1.21283 7.26989 3.31951 5.15472 5.9089 5.15472H23.8054C26.3948 5.15472 28.5015 7.26989 28.5015 9.86898V19.8457Z" fill="url(#paint0_linear_696_1768)"/>
<path d="M20.2286 14.6378L11.8267 9.71673C11.6399 9.60757 11.4077 9.60575 11.2191 9.71369C11.0305 9.82164 10.9141 10.0224 10.9141 10.2401V20.0816C10.9141 20.2987 11.0305 20.5 11.2185 20.6079C11.3119 20.6613 11.4162 20.688 11.5205 20.688C11.6266 20.688 11.7321 20.6601 11.8267 20.6049L20.2286 15.6851C20.4141 15.5765 20.5288 15.377 20.5288 15.1617C20.5288 14.9464 20.4148 14.7463 20.2286 14.6378ZM12.1269 19.0234V11.2976L18.7222 15.1611L12.1269 19.0234Z" fill="url(#paint1_linear_696_1768)"/>
</g>
<defs>
<linearGradient id="paint0_linear_696_1768" x1="14.8571" y1="25.7722" x2="14.8571" y2="3.94189" gradientUnits="userSpaceOnUse">
<stop stop-color="#000E38"/>
<stop offset="1" stop-color="#3F186A"/>
</linearGradient>
<linearGradient id="paint1_linear_696_1768" x1="15.7214" y1="20.688" x2="15.7214" y2="9.63379" gradientUnits="userSpaceOnUse">
<stop stop-color="#000E38"/>
<stop offset="1" stop-color="#3F186A"/>
</linearGradient>
<clipPath id="clip0_696_1768">
<rect width="29.7143" height="29.7143" fill="white"/>
</clipPath>
</defs>
</svg>
