<svg width="309" height="166" viewBox="0 0 309 166" fill="none" xmlns="http://www.w3.org/2000/svg">
<path d="M93.8066 59.8203H91.4858V41.9231H85.1651V39.8617H100.127V41.9231H93.8066V59.8203ZM109.629 44.5851C110.293 44.5851 110.889 44.6397 111.417 44.749L111.103 46.8513C110.484 46.7148 109.938 46.6465 109.465 46.6465C108.255 46.6465 107.217 47.138 106.352 48.1209C105.497 49.1038 105.069 50.3279 105.069 51.7932V59.8203H102.803V44.8582H104.673L104.933 47.6294H105.042C105.597 46.6556 106.266 45.9048 107.049 45.3769C107.831 44.8491 108.691 44.5851 109.629 44.5851ZM116.345 44.8582V54.5644C116.345 55.784 116.623 56.6941 117.178 57.2948C117.733 57.8954 118.602 58.1958 119.786 58.1958C121.351 58.1958 122.493 57.768 123.212 56.9125C123.94 56.057 124.304 54.66 124.304 52.7215V44.8582H126.57V59.8203H124.7L124.373 57.8135H124.25C123.785 58.5507 123.139 59.115 122.311 59.5063C121.492 59.8977 120.555 60.0933 119.499 60.0933C117.679 60.0933 116.314 59.661 115.403 58.7964C114.502 57.9318 114.052 56.5485 114.052 54.6464V44.8582H116.345ZM141.041 55.7385C141.041 57.1309 140.522 58.2049 139.485 58.9603C138.447 59.7157 136.991 60.0933 135.116 60.0933C133.132 60.0933 131.585 59.7794 130.475 59.1514V57.049C131.194 57.4131 131.963 57.6998 132.782 57.9091C133.61 58.1184 134.406 58.2231 135.171 58.2231C136.354 58.2231 137.264 58.0365 137.901 57.6634C138.538 57.2811 138.857 56.7032 138.857 55.9296C138.857 55.3471 138.602 54.8511 138.092 54.4416C137.592 54.0229 136.609 53.5315 135.144 52.9672C133.751 52.4485 132.759 51.9979 132.168 51.6157C131.585 51.2244 131.148 50.783 130.857 50.2915C130.575 49.8 130.434 49.213 130.434 48.5304C130.434 47.3109 130.93 46.3507 131.922 45.65C132.914 44.9401 134.274 44.5851 136.004 44.5851C137.615 44.5851 139.189 44.9128 140.727 45.568L139.922 47.411C138.42 46.7921 137.059 46.4827 135.84 46.4827C134.766 46.4827 133.956 46.6511 133.41 46.9878C132.864 47.3246 132.591 47.7887 132.591 48.3803C132.591 48.7807 132.691 49.122 132.891 49.4041C133.1 49.6863 133.433 49.9548 133.888 50.2096C134.343 50.4644 135.216 50.833 136.509 51.3154C138.283 51.9615 139.48 52.6123 140.099 53.2675C140.727 53.9228 141.041 54.7465 141.041 55.7385ZM149.573 58.2231C149.974 58.2231 150.361 58.1958 150.734 58.1412C151.107 58.0775 151.403 58.0138 151.621 57.95V59.6838C151.375 59.8021 151.011 59.8977 150.529 59.9705C150.056 60.0524 149.628 60.0933 149.246 60.0933C146.352 60.0933 144.904 58.5689 144.904 55.5201V46.6192H142.761V45.5271L144.904 44.5851L145.86 41.3907H147.171V44.8582H151.512V46.6192H147.171V55.4245C147.171 56.3255 147.385 57.0172 147.812 57.4995C148.24 57.9819 148.827 58.2231 149.573 58.2231ZM160.945 60.0933C158.734 60.0933 156.986 59.4199 155.703 58.0729C154.429 56.726 153.792 54.8557 153.792 52.4621C153.792 50.0503 154.383 48.1345 155.566 46.7148C156.759 45.295 158.356 44.5851 160.358 44.5851C162.233 44.5851 163.716 45.204 164.809 46.4418C165.901 47.6704 166.447 49.2949 166.447 51.3154V52.7488H156.14C156.185 54.5053 156.627 55.8386 157.464 56.7487C158.31 57.6588 159.498 58.1139 161.027 58.1139C162.638 58.1139 164.231 57.7771 165.805 57.1036V59.1241C165.004 59.4699 164.244 59.7157 163.525 59.8613C162.815 60.016 161.955 60.0933 160.945 60.0933ZM160.331 46.4827C159.129 46.4827 158.169 46.8741 157.45 47.6567C156.74 48.4394 156.322 49.5225 156.194 50.9058H164.017C164.017 49.477 163.698 48.3848 163.061 47.6294C162.424 46.865 161.514 46.4827 160.331 46.4827ZM180.508 57.8135H180.385C179.338 59.3334 177.773 60.0933 175.689 60.0933C173.732 60.0933 172.208 59.4244 171.116 58.0866C170.033 56.7487 169.491 54.8466 169.491 52.3802C169.491 49.9138 170.037 47.998 171.129 46.6329C172.221 45.2677 173.741 44.5851 175.689 44.5851C177.718 44.5851 179.275 45.3223 180.358 46.7967H180.535L180.44 45.7182L180.385 44.667V38.5784H182.651V59.8203H180.808L180.508 57.8135ZM175.976 58.1958C177.523 58.1958 178.642 57.7771 179.334 56.9398C180.035 56.0934 180.385 54.7328 180.385 52.858V52.3802C180.385 50.2596 180.03 48.7489 179.32 47.8479C178.619 46.9378 177.495 46.4827 175.948 46.4827C174.619 46.4827 173.6 47.0015 172.89 48.039C172.189 49.0674 171.839 50.5236 171.839 52.4075C171.839 54.3187 172.189 55.7612 172.89 56.7351C173.591 57.7089 174.619 58.1958 175.976 58.1958ZM201.695 44.6124C203.661 44.6124 205.185 45.2859 206.268 46.6329C207.361 47.9707 207.907 49.8683 207.907 52.3256C207.907 54.7829 207.356 56.6941 206.255 58.0593C205.163 59.4153 203.643 60.0933 201.695 60.0933C200.721 60.0933 199.829 59.9159 199.019 59.5609C198.219 59.1969 197.545 58.6417 196.999 57.8954H196.835L196.357 59.8203H194.733V38.5784H196.999V43.7387C196.999 44.8946 196.963 45.9321 196.89 46.8513H196.999C198.055 45.3587 199.62 44.6124 201.695 44.6124ZM201.367 46.51C199.82 46.51 198.705 46.956 198.023 47.8479C197.34 48.7307 196.999 50.2232 196.999 52.3256C196.999 54.4279 197.349 55.9342 198.05 56.8443C198.751 57.7453 199.875 58.1958 201.422 58.1958C202.815 58.1958 203.852 57.6907 204.535 56.6804C205.217 55.6611 205.559 54.2004 205.559 52.2983C205.559 50.3507 205.217 48.899 204.535 47.9434C203.852 46.9878 202.796 46.51 201.367 46.51ZM209.504 44.8582H211.934L215.21 53.3904C215.929 55.338 216.375 56.7442 216.548 57.6088H216.657C216.776 57.1446 217.021 56.3528 217.394 55.2334C217.777 54.1048 219.014 50.6464 221.108 44.8582H223.538L217.108 61.8954C216.471 63.5791 215.724 64.7713 214.869 65.4721C214.023 66.182 212.98 66.5369 211.743 66.5369C211.051 66.5369 210.368 66.4595 209.695 66.3048V64.4892C210.196 64.5984 210.755 64.653 211.374 64.653C212.93 64.653 214.041 63.7793 214.705 62.0319L215.538 59.9022L209.504 44.8582ZM98.0386 93.8203H93.8202V82.2711C93.8202 81.9525 93.8248 81.5612 93.8339 81.097C93.843 80.6238 93.8566 80.1414 93.8748 79.65C93.893 79.1494 93.9112 78.6989 93.9294 78.2985C93.8293 78.4168 93.6246 78.6215 93.3151 78.9128C93.0148 79.1949 92.7327 79.4497 92.4687 79.6773L90.1753 81.5202L88.1412 78.981L94.5711 73.8617H98.0386V93.8203ZM120.714 93.8203L115.909 78.1619H115.786C115.804 78.5351 115.831 79.0993 115.868 79.8547C115.913 80.601 115.954 81.3974 115.99 82.2438C116.027 83.0902 116.045 83.8546 116.045 84.5372V93.8203H112.264V73.8617H118.025L122.748 89.1242H122.83L127.84 73.8617H133.601V93.8203H129.656V84.3734C129.656 83.7454 129.665 83.0219 129.683 82.2028C129.71 81.3837 129.742 80.6056 129.779 79.8684C129.815 79.1221 129.842 78.5624 129.86 78.1892H129.738L124.591 93.8203H120.714ZM142.475 78.5578V93.8203H138.311V78.5578H142.475ZM140.399 72.5784C141.018 72.5784 141.551 72.724 141.997 73.0153C142.443 73.2974 142.666 73.8298 142.666 74.6125C142.666 75.3861 142.443 75.9231 141.997 76.2234C141.551 76.5146 141.018 76.6603 140.399 76.6603C139.771 76.6603 139.235 76.5146 138.789 76.2234C138.352 75.9231 138.133 75.3861 138.133 74.6125C138.133 73.8298 138.352 73.2974 138.789 73.0153C139.235 72.724 139.771 72.5784 140.399 72.5784ZM151.02 93.8203H146.857V72.5784H151.02V93.8203ZM159.566 93.8203H155.403V72.5784H159.566V93.8203ZM168.112 78.5578V93.8203H163.948V78.5578H168.112ZM166.037 72.5784C166.656 72.5784 167.188 72.724 167.634 73.0153C168.08 73.2974 168.303 73.8298 168.303 74.6125C168.303 75.3861 168.08 75.9231 167.634 76.2234C167.188 76.5146 166.656 76.6603 166.037 76.6603C165.409 76.6603 164.872 76.5146 164.426 76.2234C163.989 75.9231 163.771 75.3861 163.771 74.6125C163.771 73.8298 163.989 73.2974 164.426 73.0153C164.872 72.724 165.409 72.5784 166.037 72.5784ZM186.364 86.1618C186.364 87.4359 186.191 88.5644 185.846 89.5474C185.509 90.5303 185.013 91.363 184.358 92.0456C183.711 92.7191 182.929 93.2287 182.01 93.5746C181.099 93.9204 180.071 94.0933 178.924 94.0933C177.85 94.0933 176.863 93.9204 175.962 93.5746C175.07 93.2287 174.292 92.7191 173.627 92.0456C172.972 91.363 172.463 90.5303 172.098 89.5474C171.744 88.5644 171.566 87.4359 171.566 86.1618C171.566 84.469 171.866 83.0356 172.467 81.8615C173.068 80.6875 173.923 79.7956 175.034 79.1858C176.144 78.576 177.468 78.2711 179.006 78.2711C180.435 78.2711 181.7 78.576 182.801 79.1858C183.912 79.7956 184.781 80.6875 185.409 81.8615C186.046 83.0356 186.364 84.469 186.364 86.1618ZM175.812 86.1618C175.812 87.1629 175.921 88.0047 176.139 88.6873C176.358 89.3699 176.699 89.8841 177.163 90.2299C177.627 90.5758 178.233 90.7487 178.979 90.7487C179.716 90.7487 180.312 90.5758 180.767 90.2299C181.231 89.8841 181.568 89.3699 181.777 88.6873C181.996 88.0047 182.105 87.1629 182.105 86.1618C182.105 85.1516 181.996 84.3143 181.777 83.6499C181.568 82.9764 181.231 82.4713 180.767 82.1345C180.303 81.7978 179.698 81.6294 178.952 81.6294C177.85 81.6294 177.049 82.0071 176.549 82.7625C176.057 83.5179 175.812 84.651 175.812 86.1618ZM198.473 78.2711C200.102 78.2711 201.413 78.7171 202.405 79.609C203.397 80.4918 203.893 81.9116 203.893 83.8683V93.8203H199.729V84.9058C199.729 83.8137 199.529 82.99 199.129 82.4349C198.737 81.8797 198.118 81.6021 197.272 81.6021C195.998 81.6021 195.129 82.0344 194.665 82.899C194.2 83.7636 193.968 85.0105 193.968 86.6396V93.8203H189.805V78.5578H192.985L193.545 80.51H193.777C194.105 79.9821 194.51 79.5544 194.992 79.2268C195.484 78.8991 196.025 78.6579 196.617 78.5032C197.217 78.3485 197.836 78.2711 198.473 78.2711ZM215.47 82.4758H220.753V85.4655H215.47V90.7214H212.48V85.4655H207.197V82.4758H212.48V77.1517H215.47V82.4758ZM119.676 113.677C119.676 115.698 118.985 117.254 117.601 118.346C116.227 119.429 114.257 119.971 111.69 119.971H109.342V127.82H107.021V107.862H112.195C117.183 107.862 119.676 109.8 119.676 113.677ZM109.342 117.978H111.431C113.488 117.978 114.976 117.645 115.895 116.981C116.814 116.317 117.274 115.252 117.274 113.786C117.274 112.467 116.841 111.484 115.977 110.838C115.112 110.192 113.765 109.868 111.936 109.868H109.342V117.978ZM132.727 127.82L132.277 125.691H132.168C131.421 126.628 130.675 127.265 129.929 127.602C129.192 127.93 128.268 128.093 127.157 128.093C125.674 128.093 124.509 127.711 123.663 126.947C122.825 126.182 122.407 125.095 122.407 123.684C122.407 120.662 124.823 119.079 129.656 118.933L132.195 118.851V117.923C132.195 116.749 131.94 115.884 131.43 115.329C130.93 114.765 130.124 114.483 129.014 114.483C127.767 114.483 126.357 114.865 124.782 115.629L124.086 113.896C124.823 113.495 125.628 113.181 126.502 112.954C127.385 112.726 128.268 112.612 129.151 112.612C130.934 112.612 132.254 113.008 133.11 113.8C133.974 114.592 134.406 115.862 134.406 117.609V127.82H132.727ZM127.608 126.223C129.019 126.223 130.124 125.836 130.925 125.063C131.735 124.289 132.14 123.206 132.14 121.814V120.462L129.874 120.558C128.072 120.621 126.771 120.904 125.97 121.404C125.178 121.896 124.782 122.665 124.782 123.711C124.782 124.53 125.028 125.154 125.519 125.581C126.02 126.009 126.716 126.223 127.608 126.223ZM145.915 112.585C146.579 112.585 147.175 112.64 147.703 112.749L147.389 114.851C146.77 114.715 146.224 114.647 145.751 114.647C144.54 114.647 143.503 115.138 142.638 116.121C141.783 117.104 141.355 118.328 141.355 119.793V127.82H139.089V112.858H140.959L141.219 115.629H141.328C141.883 114.656 142.552 113.905 143.335 113.377C144.117 112.849 144.977 112.585 145.915 112.585ZM156.822 128.093C154.611 128.093 152.863 127.42 151.58 126.073C150.306 124.726 149.669 122.856 149.669 120.462C149.669 118.05 150.26 116.135 151.444 114.715C152.636 113.295 154.233 112.585 156.235 112.585C158.11 112.585 159.594 113.204 160.686 114.442C161.778 115.67 162.324 117.295 162.324 119.315V120.749H152.017C152.062 122.505 152.504 123.839 153.341 124.749C154.188 125.659 155.375 126.114 156.904 126.114C158.515 126.114 160.108 125.777 161.682 125.104V127.124C160.881 127.47 160.121 127.716 159.402 127.861C158.693 128.016 157.833 128.093 156.822 128.093ZM156.208 114.483C155.007 114.483 154.047 114.874 153.328 115.657C152.618 116.439 152.199 117.522 152.072 118.906H159.894C159.894 117.477 159.575 116.385 158.938 115.629C158.301 114.865 157.391 114.483 156.208 114.483ZM176.44 127.82V118.141C176.44 116.922 176.162 116.012 175.607 115.411C175.052 114.81 174.183 114.51 172.999 114.51C171.434 114.51 170.287 114.933 169.559 115.78C168.831 116.626 168.467 118.023 168.467 119.971V127.82H166.201V112.858H168.044L168.413 114.906H168.522C168.986 114.169 169.637 113.6 170.474 113.199C171.311 112.79 172.244 112.585 173.273 112.585C175.075 112.585 176.431 113.022 177.341 113.896C178.251 114.76 178.706 116.148 178.706 118.059V127.82H176.44ZM188.207 126.223C188.608 126.223 188.995 126.196 189.368 126.141C189.741 126.077 190.037 126.014 190.255 125.95V127.684C190.009 127.802 189.645 127.898 189.163 127.97C188.69 128.052 188.262 128.093 187.88 128.093C184.986 128.093 183.539 126.569 183.539 123.52V114.619H181.395V113.527L183.539 112.585L184.494 109.391H185.805V112.858H190.146V114.619H185.805V123.424C185.805 124.326 186.019 125.017 186.446 125.5C186.874 125.982 187.461 126.223 188.207 126.223ZM202.91 123.738C202.91 125.131 202.391 126.205 201.354 126.96C200.316 127.716 198.86 128.093 196.985 128.093C195.001 128.093 193.454 127.779 192.344 127.151V125.049C193.063 125.413 193.832 125.7 194.651 125.909C195.479 126.118 196.275 126.223 197.04 126.223C198.223 126.223 199.133 126.037 199.77 125.663C200.407 125.281 200.726 124.703 200.726 123.93C200.726 123.347 200.471 122.851 199.961 122.442C199.461 122.023 198.478 121.531 197.013 120.967C195.62 120.448 194.628 119.998 194.037 119.616C193.454 119.224 193.017 118.783 192.726 118.292C192.444 117.8 192.303 117.213 192.303 116.53C192.303 115.311 192.799 114.351 193.791 113.65C194.783 112.94 196.143 112.585 197.873 112.585C199.484 112.585 201.058 112.913 202.596 113.568L201.791 115.411C200.289 114.792 198.928 114.483 197.709 114.483C196.635 114.483 195.825 114.651 195.279 114.988C194.733 115.325 194.46 115.789 194.46 116.38C194.46 116.781 194.56 117.122 194.76 117.404C194.969 117.686 195.302 117.955 195.757 118.21C196.212 118.464 197.085 118.833 198.378 119.315C200.152 119.962 201.349 120.612 201.968 121.268C202.596 121.923 202.91 122.746 202.91 123.738Z" fill="url(#paint0_linear_1376_1374)"/>
<g clip-path="url(#clip0_1376_1374)">
<path fill-rule="evenodd" clip-rule="evenodd" d="M46.2889 11.9258C31.9034 26.3738 22.3283 46.6126 20.8499 69.4428C17.8364 116.204 49.962 156.097 92.6066 158.551L92.2086 164.766C48.2676 162.231 15.1753 121.135 18.2799 72.9516C19.8606 48.4817 30.4706 26.9013 46.3002 11.9258H46.2889Z" fill="#ED923A" fill-opacity="0.3"/>
<path fill-rule="evenodd" clip-rule="evenodd" d="M65.2085 159.915C56.8956 162.632 51.9148 154.892 44.8755 153.666C37.8363 152.439 35.6302 156.67 30.9336 158.206C41.555 166.749 53.0065 167.242 65.1971 159.915H65.2085Z" fill="#ED923A" fill-opacity="0.3"/>
<path fill-rule="evenodd" clip-rule="evenodd" d="M50.2329 148.747C41.6357 149.573 38.1786 140.835 31.5375 138.049C24.8963 135.262 21.9851 138.943 17.1406 139.413C25.9652 150.203 37.0301 153.242 50.2329 148.747Z" fill="#ED923A" fill-opacity="0.3"/>
<path fill-rule="evenodd" clip-rule="evenodd" d="M34.3158 131.58C26.6284 130.926 24.7406 122.613 19.2594 119.081C13.7667 115.549 10.7191 118.336 6.375 117.969C12.7092 128.965 22.0682 133.449 34.3271 131.58H34.3158Z" fill="#ED923A" fill-opacity="0.3"/>
<path fill-rule="evenodd" clip-rule="evenodd" d="M25.57 114.966C18.5535 112.684 18.3147 104.508 13.8683 100.013C9.42186 95.5185 6.07852 97.4679 2.12109 96.1836C6.01029 107.834 13.8796 114.049 25.5813 114.955L25.57 114.966Z" fill="#ED923A" fill-opacity="0.3"/>
<path fill-rule="evenodd" clip-rule="evenodd" d="M20.0373 97.9273C13.5098 94.3267 14.5788 86.2083 10.9284 80.9221C7.27802 75.636 3.6845 76.9202 0 74.8906C1.95597 87.1485 8.68814 94.7854 20.0373 97.9273Z" fill="#ED923A" fill-opacity="0.3"/>
<path fill-rule="evenodd" clip-rule="evenodd" d="M18.4092 79.3478C12.7915 74.2681 15.4411 66.5625 12.9507 60.508C10.4602 54.4536 6.70748 54.855 3.53472 51.9883C3.00024 64.4641 8.01525 73.5686 18.4092 79.3478Z" fill="#ED923A" fill-opacity="0.3"/>
<path fill-rule="evenodd" clip-rule="evenodd" d="M20.54 58.5845C16.8782 52.5071 21.0403 46.4986 20.3239 40.4671C19.6188 34.4241 16.2641 33.7017 14.1944 30.2617C10.726 41.0634 12.898 50.5119 20.54 58.5845Z" fill="#ED923A" fill-opacity="0.3"/>
<path fill-rule="evenodd" clip-rule="evenodd" d="M24.6658 40.9807C23.1078 34.6281 28.1797 30.7524 29.1236 25.3401C30.0674 19.9278 27.4064 18.2766 26.5308 14.6875C20.8221 22.9091 20.2535 31.6812 24.6771 40.9692L24.6658 40.9807Z" fill="#ED923A" fill-opacity="0.3"/>
<path fill-rule="evenodd" clip-rule="evenodd" d="M33.3839 26.6246C32.8381 21.7971 36.8865 19.5267 38.0692 15.6739C39.2518 11.8211 37.4664 10.3075 37.1594 7.58984C32.2467 12.9792 31.0072 19.3318 33.3726 26.6246H33.3839Z" fill="#ED923A" fill-opacity="0.3"/>
<path fill-rule="evenodd" clip-rule="evenodd" d="M42.0118 14.9394C42.8419 10.7425 46.788 10.1348 48.778 7.30253C50.7795 4.47025 49.7105 2.64705 50.1768 0.273438C44.6955 3.19745 42.0004 8.11667 42.0118 14.9394Z" fill="#ED923A" fill-opacity="0.3"/>
<path fill-rule="evenodd" clip-rule="evenodd" d="M76.734 154.01C71.5825 147.899 75.0623 140.663 73.1632 134.15C71.2641 127.625 67.4431 127.35 64.5319 123.91C62.7011 136.306 66.8291 146.339 76.734 154.022V154.01Z" fill="#ED923A" fill-opacity="0.3"/>
<path fill-rule="evenodd" clip-rule="evenodd" d="M61.7737 146.705C56.7587 140.639 60.3181 133.403 58.5441 126.913C56.7701 120.423 52.9832 120.159 50.1516 116.742C48.1388 129.103 52.0848 139.091 61.7737 146.705Z" fill="#ED923A" fill-opacity="0.3"/>
<path fill-rule="evenodd" clip-rule="evenodd" d="M45.0549 132.886C41.8139 126.293 46.4991 120.64 46.2489 114.425C45.9988 108.199 42.6554 107.086 40.8245 103.371C36.4691 113.978 37.9475 123.828 45.0549 132.898V132.886Z" fill="#ED923A" fill-opacity="0.3"/>
<path fill-rule="evenodd" clip-rule="evenodd" d="M32.309 115.686C30.535 108.933 35.8798 104.678 36.8009 98.8762C37.7106 93.0741 34.8449 91.3655 33.8328 87.5586C27.8739 96.4568 27.4191 105.859 32.309 115.686Z" fill="#ED923A" fill-opacity="0.3"/>
<path fill-rule="evenodd" clip-rule="evenodd" d="M24.9515 94.6682C24.2578 88.4532 29.4889 85.5292 31.0127 80.5641C32.548 75.599 30.2508 73.6612 29.8642 70.1523C23.5187 77.0782 21.9152 85.2769 24.9515 94.6682Z" fill="#ED923A" fill-opacity="0.3"/>
<path fill-rule="evenodd" clip-rule="evenodd" d="M23.6623 72.8821C24.3674 67.2979 29.4847 66.0594 31.8501 62.1264C34.2154 58.1933 32.6461 55.9229 33.0327 52.7695C26.1073 57.2071 23.0141 63.9381 23.6623 72.8821Z" fill="#ED923A" fill-opacity="0.3"/>
<path fill-rule="evenodd" clip-rule="evenodd" d="M26.793 52.3913C28.5556 47.7817 33.1499 47.9996 35.9815 45.2247C38.8017 42.4382 37.9488 40.099 38.9382 37.4961C32.1378 39.5716 28.1121 44.5711 26.793 52.3913Z" fill="#ED923A" fill-opacity="0.3"/>
<path fill-rule="evenodd" clip-rule="evenodd" d="M33.0703 36.7071C35.2423 33.0149 39.177 33.9895 42.02 32.0631C44.8516 30.1367 44.4422 27.958 45.6704 25.8711C39.5182 26.5018 35.3333 30.1482 33.0703 36.7071Z" fill="#ED923A" fill-opacity="0.3"/>
<path fill-rule="evenodd" clip-rule="evenodd" d="M40.9844 22.7368C43.0427 19.9389 46.1586 21.1085 48.6036 19.8128C51.0485 18.5171 50.9007 16.7053 52.0606 15.1229C47.0229 15.0427 43.3384 17.6112 40.9844 22.7253V22.7368Z" fill="#ED923A" fill-opacity="0.3"/>
<path fill-rule="evenodd" clip-rule="evenodd" d="M50.3906 9.78085C52.358 6.44404 55.906 7.32698 58.4647 5.58404C61.0234 3.85256 60.6595 1.88029 61.7625 -0.0117188C56.2017 0.55015 52.4262 3.85256 50.3906 9.76939V9.78085Z" fill="#ED923A" fill-opacity="0.3"/>
</g>
<g clip-path="url(#clip1_1376_1374)">
<path fill-rule="evenodd" clip-rule="evenodd" d="M262.586 11.9258C276.972 26.3738 286.547 46.6126 288.025 69.4428C291.039 116.204 258.913 156.097 216.268 158.551L216.666 164.766C260.607 162.231 293.7 121.135 290.595 72.9516C289.014 48.4817 278.404 26.9013 262.575 11.9258H262.586Z" fill="#ED923A" fill-opacity="0.3"/>
<path fill-rule="evenodd" clip-rule="evenodd" d="M243.659 159.915C251.972 162.632 256.952 154.892 263.992 153.666C271.031 152.439 273.237 156.67 277.934 158.206C267.312 166.749 255.861 167.242 243.67 159.915H243.659Z" fill="#ED923A" fill-opacity="0.3"/>
<path fill-rule="evenodd" clip-rule="evenodd" d="M258.638 148.747C267.235 149.573 270.692 140.835 277.334 138.049C283.975 135.262 286.886 138.943 291.73 139.413C282.906 150.203 271.841 153.242 258.638 148.747Z" fill="#ED923A" fill-opacity="0.3"/>
<path fill-rule="evenodd" clip-rule="evenodd" d="M274.551 131.58C282.239 130.926 284.127 122.613 289.608 119.081C295.1 115.549 298.148 118.336 302.492 117.969C296.158 128.965 286.799 133.449 274.54 131.58H274.551Z" fill="#ED923A" fill-opacity="0.3"/>
<path fill-rule="evenodd" clip-rule="evenodd" d="M283.309 114.966C290.325 112.684 290.564 104.508 295.011 100.013C299.457 95.5185 302.8 97.4679 306.758 96.1836C302.869 107.834 294.999 114.049 283.298 114.955L283.309 114.966Z" fill="#ED923A" fill-opacity="0.3"/>
<path fill-rule="evenodd" clip-rule="evenodd" d="M288.834 97.9273C295.361 94.3267 294.292 86.2083 297.943 80.9221C301.593 75.636 305.187 76.9202 308.871 74.8906C306.915 87.1485 300.183 94.7854 288.834 97.9273Z" fill="#ED923A" fill-opacity="0.3"/>
<path fill-rule="evenodd" clip-rule="evenodd" d="M290.458 79.3478C296.076 74.2681 293.426 66.5625 295.917 60.508C298.407 54.4536 302.16 54.855 305.332 51.9883C305.867 64.4641 300.852 73.5686 290.458 79.3478Z" fill="#ED923A" fill-opacity="0.3"/>
<path fill-rule="evenodd" clip-rule="evenodd" d="M288.331 58.5845C291.993 52.5071 287.831 46.4986 288.547 40.4671C289.252 34.4241 292.607 33.7017 294.677 30.2617C298.145 41.0634 295.973 50.5119 288.331 58.5845Z" fill="#ED923A" fill-opacity="0.3"/>
<path fill-rule="evenodd" clip-rule="evenodd" d="M284.205 40.9807C285.763 34.6281 280.691 30.7524 279.748 25.3401C278.804 19.9278 281.465 18.2766 282.34 14.6875C288.049 22.9091 288.618 31.6812 284.194 40.9692L284.205 40.9807Z" fill="#ED923A" fill-opacity="0.3"/>
<path fill-rule="evenodd" clip-rule="evenodd" d="M275.495 26.6246C276.041 21.7971 271.992 19.5267 270.81 15.6739C269.627 11.8211 271.412 10.3075 271.72 7.58984C276.632 12.9792 277.872 19.3318 275.506 26.6246H275.495Z" fill="#ED923A" fill-opacity="0.3"/>
<path fill-rule="evenodd" clip-rule="evenodd" d="M266.867 14.9433C266.037 10.7464 262.091 10.1387 260.101 7.30644C258.099 4.47416 259.168 2.65095 258.702 0.277344C264.183 3.20135 266.879 8.12057 266.867 14.9433Z" fill="#ED923A" fill-opacity="0.3"/>
<path fill-rule="evenodd" clip-rule="evenodd" d="M232.133 154.01C237.285 147.899 233.805 140.663 235.704 134.15C237.603 127.625 241.424 127.35 244.335 123.91C246.166 136.306 242.038 146.339 232.133 154.022V154.01Z" fill="#ED923A" fill-opacity="0.3"/>
<path fill-rule="evenodd" clip-rule="evenodd" d="M247.101 146.705C252.116 140.639 248.557 133.403 250.331 126.913C252.105 120.423 255.892 120.159 258.723 116.742C260.736 129.103 256.79 139.091 247.101 146.705Z" fill="#ED923A" fill-opacity="0.3"/>
<path fill-rule="evenodd" clip-rule="evenodd" d="M263.816 132.886C267.057 126.293 262.372 120.64 262.622 114.425C262.872 108.199 266.216 107.086 268.047 103.371C272.402 113.978 270.924 123.828 263.816 132.898V132.886Z" fill="#ED923A" fill-opacity="0.3"/>
<path fill-rule="evenodd" clip-rule="evenodd" d="M276.562 115.686C278.336 108.933 272.991 104.678 272.07 98.8762C271.16 93.0741 274.026 91.3655 275.038 87.5586C280.997 96.4568 281.452 105.859 276.562 115.686Z" fill="#ED923A" fill-opacity="0.3"/>
<path fill-rule="evenodd" clip-rule="evenodd" d="M283.931 94.6682C284.625 88.4532 279.394 85.5292 277.87 80.5641C276.335 75.599 278.632 73.6612 279.019 70.1523C285.364 77.0782 286.968 85.2769 283.931 94.6682Z" fill="#ED923A" fill-opacity="0.3"/>
<path fill-rule="evenodd" clip-rule="evenodd" d="M285.209 72.8821C284.504 67.2979 279.386 66.0594 277.021 62.1264C274.656 58.1933 276.225 55.9229 275.838 52.7695C282.764 57.2071 285.857 63.9381 285.209 72.8821Z" fill="#ED923A" fill-opacity="0.3"/>
<path fill-rule="evenodd" clip-rule="evenodd" d="M282.078 52.3913C280.315 47.7817 275.721 47.9996 272.89 45.2247C270.069 42.4382 270.922 40.099 269.933 37.4961C276.733 39.5716 280.759 44.5711 282.078 52.3913Z" fill="#ED923A" fill-opacity="0.3"/>
<path fill-rule="evenodd" clip-rule="evenodd" d="M275.797 36.7071C273.625 33.0149 269.69 33.9895 266.847 32.0631C264.016 30.1367 264.425 27.958 263.197 25.8711C269.349 26.5018 273.534 30.1482 275.797 36.7071Z" fill="#ED923A" fill-opacity="0.3"/>
<path fill-rule="evenodd" clip-rule="evenodd" d="M267.887 22.7368C265.828 19.9389 262.713 21.1085 260.268 19.8128C257.823 18.5171 257.97 16.7053 256.81 15.1229C261.848 15.0427 265.533 17.6112 267.887 22.7253V22.7368Z" fill="#ED923A" fill-opacity="0.3"/>
<path fill-rule="evenodd" clip-rule="evenodd" d="M258.48 9.78085C256.513 6.44404 252.965 7.32698 250.406 5.58404C247.848 3.85256 248.212 1.88029 247.109 -0.0117188C252.669 0.55015 256.445 3.85256 258.48 9.76939V9.78085Z" fill="#ED923A" fill-opacity="0.3"/>
</g>
<defs>
<linearGradient id="paint0_linear_1376_1374" x1="84.7422" y1="82.8203" x2="223.742" y2="82.8203" gradientUnits="userSpaceOnUse">
<stop stop-color="#010E39"/>
<stop offset="1" stop-color="#0344A2"/>
</linearGradient>
<clipPath id="clip0_1376_1374">
<rect width="92.59" height="165.052" fill="white"/>
</clipPath>
<clipPath id="clip1_1376_1374">
<rect width="92.59" height="165.052" fill="white" transform="matrix(-1 0 0 1 308.871 0)"/>
</clipPath>
</defs>
</svg>
