<svg width="309" height="166" viewBox="0 0 309 166" fill="none" xmlns="http://www.w3.org/2000/svg">
<path d="M145.607 59.8203H131.655V56.8852L136.665 51.8205C137.675 50.783 138.485 49.9184 139.095 49.2267C139.714 48.5259 140.16 47.8888 140.433 47.3155C140.715 46.7421 140.856 46.1278 140.856 45.4725C140.856 44.6807 140.633 44.0891 140.187 43.6978C139.75 43.2973 139.163 43.0971 138.426 43.0971C137.653 43.0971 136.902 43.2746 136.174 43.6295C135.446 43.9845 134.686 44.4896 133.894 45.1448L131.6 42.4282C132.174 41.9367 132.779 41.4726 133.416 41.0357C134.062 40.5989 134.809 40.2485 135.655 39.9845C136.51 39.7115 137.534 39.575 138.727 39.575C140.037 39.575 141.161 39.8116 142.099 40.2849C143.045 40.7581 143.773 41.4043 144.283 42.2234C144.792 43.0334 145.047 43.9526 145.047 44.981C145.047 46.0823 144.829 47.0879 144.392 47.998C143.955 48.9081 143.318 49.8091 142.481 50.701C141.653 51.593 140.651 52.5804 139.477 53.6634L136.911 56.0798V56.2709H145.607V59.8203ZM161.607 59.8203H147.655V56.8852L152.665 51.8205C153.675 50.783 154.485 49.9184 155.095 49.2267C155.714 48.5259 156.16 47.8888 156.433 47.3155C156.715 46.7421 156.856 46.1278 156.856 45.4725C156.856 44.6807 156.633 44.0891 156.187 43.6978C155.75 43.2973 155.163 43.0971 154.426 43.0971C153.652 43.0971 152.902 43.2746 152.173 43.6295C151.445 43.9845 150.685 44.4896 149.894 45.1448L147.6 42.4282C148.174 41.9367 148.779 41.4726 149.416 41.0357C150.062 40.5989 150.808 40.2485 151.655 39.9845C152.51 39.7115 153.534 39.575 154.726 39.575C156.037 39.575 157.161 39.8116 158.098 40.2849C159.045 40.7581 159.773 41.4043 160.282 42.2234C160.792 43.0334 161.047 43.9526 161.047 44.981C161.047 46.0823 160.829 47.0879 160.392 47.998C159.955 48.9081 159.318 49.8091 158.48 50.701C157.652 51.593 156.651 52.5804 155.477 53.6634L152.911 56.0798V56.2709H161.607V59.8203ZM172.009 48.4758H177.292V51.4655H172.009V56.7214H169.019V51.4655H163.736V48.4758H169.019V43.1517H172.009V48.4758ZM120.898 82.0799L125.061 73.8617H129.621L123 86.0526V93.8203H118.795V86.1891L112.174 73.8617H116.761L120.898 82.0799ZM138.099 78.2711C139.509 78.2711 140.724 78.5442 141.744 79.0902C142.763 79.6272 143.55 80.4099 144.105 81.4383C144.661 82.4667 144.938 83.7227 144.938 85.2062V87.2266H135.095C135.141 88.4006 135.491 89.3244 136.146 89.9979C136.811 90.6622 137.73 90.9944 138.904 90.9944C139.878 90.9944 140.77 90.8943 141.58 90.6941C142.39 90.4939 143.223 90.1935 144.078 89.7931V93.0149C143.323 93.388 142.531 93.661 141.703 93.834C140.884 94.0069 139.887 94.0933 138.713 94.0933C137.184 94.0933 135.828 93.8112 134.645 93.2469C133.471 92.6827 132.547 91.8226 131.874 90.6668C131.209 89.511 130.877 88.0548 130.877 86.2983C130.877 84.5145 131.177 83.031 131.778 81.8479C132.388 80.6556 133.234 79.7637 134.317 79.1722C135.4 78.5715 136.661 78.2711 138.099 78.2711ZM138.126 81.2335C137.316 81.2335 136.642 81.4929 136.106 82.0117C135.578 82.5304 135.273 83.345 135.191 84.4553H141.034C141.025 83.8364 140.911 83.2858 140.692 82.8035C140.483 82.3211 140.165 81.9389 139.737 81.6567C139.318 81.3746 138.781 81.2335 138.126 81.2335ZM154.576 78.2438C156.624 78.2438 158.194 78.6898 159.286 79.5817C160.378 80.4736 160.924 81.8297 160.924 83.6499V93.8203H158.016L157.211 91.7453H157.102C156.665 92.2913 156.219 92.7373 155.764 93.0831C155.309 93.429 154.785 93.6838 154.194 93.8476C153.602 94.0114 152.883 94.0933 152.037 94.0933C151.136 94.0933 150.326 93.9204 149.607 93.5746C148.897 93.2287 148.337 92.7009 147.928 91.991C147.518 91.272 147.313 90.3619 147.313 89.2607C147.313 87.6407 147.882 86.4485 149.02 85.684C150.158 84.9104 151.864 84.4826 154.139 84.4007L156.788 84.3188V83.6499C156.788 82.849 156.578 82.262 156.16 81.8888C155.741 81.5157 155.159 81.3291 154.412 81.3291C153.675 81.3291 152.952 81.4338 152.242 81.6431C151.532 81.8524 150.822 82.1163 150.112 82.4349L148.733 79.6227C149.543 79.1949 150.449 78.8582 151.45 78.6124C152.46 78.3667 153.502 78.2438 154.576 78.2438ZM156.788 86.7488L155.177 86.8034C153.83 86.8398 152.892 87.081 152.365 87.5269C151.846 87.9729 151.586 88.5599 151.586 89.288C151.586 89.9251 151.773 90.3801 152.146 90.6531C152.519 90.9171 153.006 91.049 153.607 91.049C154.499 91.049 155.25 90.7851 155.859 90.2572C156.478 89.7294 156.788 88.9785 156.788 88.0047V86.7488ZM173.743 78.2711C173.952 78.2711 174.193 78.2848 174.466 78.3121C174.749 78.3303 174.976 78.3576 175.149 78.394L174.835 82.2984C174.699 82.2529 174.503 82.221 174.248 82.2028C174.002 82.1755 173.788 82.1619 173.606 82.1619C173.069 82.1619 172.546 82.2301 172.037 82.3666C171.536 82.5031 171.085 82.7261 170.685 83.0356C170.285 83.3359 169.966 83.7363 169.729 84.2369C169.502 84.7284 169.388 85.3336 169.388 86.0526V93.8203H165.224V78.5578H168.378L168.992 81.1243H169.197C169.497 80.6056 169.87 80.1323 170.316 79.7046C170.771 79.2677 171.286 78.9219 171.859 78.667C172.441 78.4031 173.069 78.2711 173.743 78.2711ZM188.569 89.288C188.569 90.3255 188.323 91.2038 187.831 91.9227C187.349 92.6326 186.626 93.1741 185.661 93.5473C184.696 93.9113 183.495 94.0933 182.057 94.0933C180.992 94.0933 180.077 94.0251 179.313 93.8886C178.557 93.7521 177.793 93.5245 177.019 93.206V89.7658C177.848 90.1389 178.735 90.4484 179.681 90.6941C180.637 90.9307 181.474 91.049 182.193 91.049C183.003 91.049 183.581 90.9307 183.927 90.6941C184.282 90.4484 184.459 90.1298 184.459 89.7385C184.459 89.4837 184.387 89.2561 184.241 89.0559C184.105 88.8466 183.804 88.6145 183.34 88.3597C182.876 88.0957 182.148 87.7545 181.156 87.3358C180.2 86.9354 179.413 86.5304 178.794 86.1208C178.184 85.7113 177.729 85.2289 177.429 84.6737C177.138 84.1095 176.992 83.395 176.992 82.5304C176.992 81.1198 177.538 80.0595 178.63 79.3496C179.731 78.6306 181.201 78.2711 183.04 78.2711C183.986 78.2711 184.887 78.3667 185.743 78.5578C186.607 78.749 187.495 79.0538 188.405 79.4725L187.149 82.4758C186.393 82.1482 185.679 81.8797 185.006 81.6704C184.341 81.4611 183.663 81.3564 182.971 81.3564C182.362 81.3564 181.902 81.4383 181.593 81.6021C181.283 81.766 181.128 82.0162 181.128 82.353C181.128 82.5987 181.206 82.8171 181.361 83.0083C181.524 83.1994 181.834 83.4132 182.289 83.6499C182.753 83.8774 183.431 84.1732 184.323 84.5372C185.188 84.8922 185.938 85.2653 186.575 85.6567C187.213 86.0389 187.704 86.5167 188.05 87.0901C188.396 87.6543 188.569 88.387 188.569 89.288ZM108.775 120.326C108.775 122.765 108.161 124.671 106.932 126.046C105.703 127.411 104.006 128.093 101.84 128.093C100.502 128.093 99.3145 127.779 98.2769 127.151C97.2394 126.523 96.4385 125.622 95.8743 124.448C95.31 123.274 95.0279 121.9 95.0279 120.326C95.0279 117.887 95.6376 115.989 96.8572 114.633C98.0767 113.268 99.7695 112.585 101.936 112.585C104.029 112.585 105.69 113.281 106.918 114.674C108.156 116.066 108.775 117.95 108.775 120.326ZM97.3759 120.326C97.3759 122.237 97.7582 123.693 98.5227 124.694C99.2872 125.695 100.411 126.196 101.895 126.196C103.378 126.196 104.502 125.7 105.267 124.708C106.04 123.707 106.427 122.246 106.427 120.326C106.427 118.423 106.04 116.981 105.267 115.998C104.502 115.006 103.369 114.51 101.867 114.51C100.384 114.51 99.2644 114.997 98.509 115.971C97.7536 116.945 97.3759 118.396 97.3759 120.326ZM119.505 114.619H115.696V127.82H113.43V114.619H110.754V113.595L113.43 112.776V111.944C113.43 108.267 115.037 106.428 118.249 106.428C119.041 106.428 119.969 106.588 121.034 106.906L120.447 108.722C119.573 108.44 118.827 108.299 118.208 108.299C117.353 108.299 116.72 108.585 116.311 109.159C115.901 109.723 115.696 110.633 115.696 111.889V112.858H119.505V114.619ZM129.839 127.82V107.862H132.16V125.718H140.965V127.82H129.839ZM150.344 128.093C148.133 128.093 146.385 127.42 145.102 126.073C143.828 124.726 143.191 122.856 143.191 120.462C143.191 118.05 143.782 116.135 144.965 114.715C146.158 113.295 147.755 112.585 149.757 112.585C151.632 112.585 153.115 113.204 154.208 114.442C155.3 115.67 155.846 117.295 155.846 119.315V120.749H145.539C145.584 122.505 146.026 123.839 146.863 124.749C147.709 125.659 148.897 126.114 150.426 126.114C152.037 126.114 153.63 125.777 155.204 125.104V127.124C154.403 127.47 153.643 127.716 152.924 127.861C152.214 128.016 151.354 128.093 150.344 128.093ZM149.73 114.483C148.528 114.483 147.568 114.874 146.849 115.657C146.139 116.439 145.721 117.522 145.593 118.906H153.416C153.416 117.477 153.097 116.385 152.46 115.629C151.823 114.865 150.913 114.483 149.73 114.483ZM171.968 112.858V114.292L169.197 114.619C169.452 114.938 169.679 115.356 169.88 115.875C170.08 116.385 170.18 116.963 170.18 117.609C170.18 119.074 169.679 120.244 168.678 121.117C167.677 121.991 166.303 122.428 164.555 122.428C164.109 122.428 163.691 122.392 163.299 122.319C162.335 122.828 161.852 123.47 161.852 124.244C161.852 124.653 162.021 124.958 162.358 125.158C162.694 125.349 163.272 125.445 164.091 125.445H166.74C168.36 125.445 169.602 125.786 170.467 126.469C171.34 127.151 171.777 128.143 171.777 129.445C171.777 131.101 171.113 132.362 169.784 133.226C168.455 134.1 166.517 134.537 163.968 134.537C162.012 134.537 160.501 134.173 159.436 133.445C158.38 132.717 157.852 131.688 157.852 130.36C157.852 129.449 158.144 128.662 158.726 127.998C159.309 127.333 160.128 126.883 161.183 126.646C160.801 126.473 160.478 126.205 160.214 125.841C159.959 125.477 159.832 125.054 159.832 124.571C159.832 124.025 159.978 123.547 160.269 123.138C160.56 122.728 161.02 122.332 161.648 121.95C160.874 121.632 160.242 121.09 159.75 120.326C159.268 119.561 159.027 118.687 159.027 117.704C159.027 116.066 159.518 114.806 160.501 113.923C161.484 113.031 162.876 112.585 164.678 112.585C165.461 112.585 166.166 112.676 166.794 112.858H171.968ZM160.037 130.332C160.037 131.142 160.378 131.757 161.061 132.175C161.743 132.594 162.722 132.803 163.996 132.803C165.898 132.803 167.304 132.516 168.214 131.943C169.133 131.379 169.593 130.61 169.593 129.636C169.593 128.826 169.343 128.262 168.842 127.943C168.341 127.634 167.4 127.479 166.016 127.479H163.299C162.271 127.479 161.47 127.725 160.897 128.216C160.323 128.708 160.037 129.413 160.037 130.332ZM161.265 117.65C161.265 118.696 161.561 119.488 162.153 120.025C162.744 120.562 163.568 120.831 164.624 120.831C166.835 120.831 167.941 119.757 167.941 117.609C167.941 115.361 166.822 114.237 164.583 114.237C163.518 114.237 162.699 114.524 162.125 115.097C161.552 115.67 161.265 116.521 161.265 117.65ZM184.241 127.82L183.791 125.691H183.681C182.935 126.628 182.189 127.265 181.442 127.602C180.705 127.93 179.782 128.093 178.671 128.093C177.188 128.093 176.023 127.711 175.176 126.947C174.339 126.182 173.92 125.095 173.92 123.684C173.92 120.662 176.337 119.079 181.169 118.933L183.709 118.851V117.923C183.709 116.749 183.454 115.884 182.944 115.329C182.444 114.765 181.638 114.483 180.528 114.483C179.281 114.483 177.87 114.865 176.296 115.629L175.6 113.896C176.337 113.495 177.142 113.181 178.016 112.954C178.899 112.726 179.782 112.612 180.664 112.612C182.448 112.612 183.768 113.008 184.623 113.8C185.488 114.592 185.92 115.862 185.92 117.609V127.82H184.241ZM179.122 126.223C180.532 126.223 181.638 125.836 182.439 125.063C183.249 124.289 183.654 123.206 183.654 121.814V120.462L181.388 120.558C179.586 120.621 178.284 120.904 177.483 121.404C176.692 121.896 176.296 122.665 176.296 123.711C176.296 124.53 176.542 125.154 177.033 125.581C177.534 126.009 178.23 126.223 179.122 126.223ZM196.582 128.093C194.416 128.093 192.737 127.429 191.545 126.1C190.361 124.762 189.77 122.874 189.77 120.435C189.77 117.932 190.371 115.998 191.572 114.633C192.782 113.268 194.502 112.585 196.732 112.585C197.451 112.585 198.17 112.662 198.889 112.817C199.608 112.972 200.172 113.154 200.582 113.363L199.886 115.288C199.385 115.088 198.839 114.924 198.248 114.797C197.656 114.66 197.133 114.592 196.678 114.592C193.638 114.592 192.118 116.53 192.118 120.407C192.118 122.246 192.487 123.657 193.224 124.639C193.97 125.622 195.071 126.114 196.527 126.114C197.774 126.114 199.053 125.845 200.364 125.308V127.315C199.362 127.834 198.102 128.093 196.582 128.093ZM201.551 112.858H203.981L207.258 121.39C207.977 123.338 208.423 124.744 208.595 125.609H208.705C208.823 125.145 209.069 124.353 209.442 123.233C209.824 122.105 211.062 118.646 213.155 112.858H215.585L209.155 129.895C208.518 131.579 207.772 132.771 206.916 133.472C206.07 134.182 205.028 134.537 203.79 134.537C203.098 134.537 202.416 134.46 201.742 134.305V132.489C202.243 132.598 202.803 132.653 203.422 132.653C204.978 132.653 206.088 131.779 206.753 130.032L207.585 127.902L201.551 112.858Z" fill="url(#paint0_linear_1376_1421)"/>
<g clip-path="url(#clip0_1376_1421)">
<path fill-rule="evenodd" clip-rule="evenodd" d="M46.2811 11.9258C31.8956 26.3738 22.3205 46.6126 20.8421 69.4428C17.8286 116.204 49.9542 156.097 92.5988 158.551L92.2008 164.766C48.2598 162.231 15.1675 121.135 18.2721 72.9516C19.8528 48.4817 30.4627 26.9013 46.2924 11.9258H46.2811Z" fill="#ED923A" fill-opacity="0.3"/>
<path fill-rule="evenodd" clip-rule="evenodd" d="M65.2007 159.915C56.8878 162.632 51.9069 154.892 44.8677 153.666C37.8285 152.439 35.6224 156.67 30.9258 158.206C41.5471 166.749 52.9986 167.242 65.1893 159.915H65.2007Z" fill="#ED923A" fill-opacity="0.3"/>
<path fill-rule="evenodd" clip-rule="evenodd" d="M50.2329 148.747C41.6357 149.573 38.1786 140.835 31.5375 138.049C24.8963 135.262 21.9851 138.943 17.1406 139.413C25.9652 150.203 37.0301 153.242 50.2329 148.747Z" fill="#ED923A" fill-opacity="0.3"/>
<path fill-rule="evenodd" clip-rule="evenodd" d="M34.3158 131.58C26.6284 130.926 24.7406 122.613 19.2594 119.081C13.7667 115.549 10.7191 118.336 6.375 117.969C12.7092 128.965 22.0682 133.449 34.3271 131.58H34.3158Z" fill="#ED923A" fill-opacity="0.3"/>
<path fill-rule="evenodd" clip-rule="evenodd" d="M25.5621 114.966C18.5457 112.684 18.3069 104.508 13.8605 100.013C9.41404 95.5185 6.0707 97.4679 2.11328 96.1836C6.00247 107.834 13.8718 114.049 25.5735 114.955L25.5621 114.966Z" fill="#ED923A" fill-opacity="0.3"/>
<path fill-rule="evenodd" clip-rule="evenodd" d="M20.0373 97.9273C13.5098 94.3267 14.5788 86.2083 10.9284 80.9221C7.27802 75.636 3.6845 76.9202 0 74.8906C1.95597 87.1485 8.68814 94.7854 20.0373 97.9273Z" fill="#ED923A" fill-opacity="0.3"/>
<path fill-rule="evenodd" clip-rule="evenodd" d="M18.4053 79.3478C12.7875 74.2681 15.4372 66.5625 12.9468 60.508C10.4563 54.4536 6.70358 54.855 3.53081 51.9883C2.99633 64.4641 8.01134 73.5686 18.4053 79.3478Z" fill="#ED923A" fill-opacity="0.3"/>
<path fill-rule="evenodd" clip-rule="evenodd" d="M20.5439 58.5845C16.8821 52.5071 21.0442 46.4986 20.3278 40.4671C19.6227 34.4241 16.268 33.7017 14.1983 30.2617C10.7299 41.0634 12.9019 50.5119 20.5439 58.5845Z" fill="#ED923A" fill-opacity="0.3"/>
<path fill-rule="evenodd" clip-rule="evenodd" d="M24.658 40.9807C23.1 34.6281 28.1719 30.7524 29.1157 25.3401C30.0596 19.9278 27.3986 18.2766 26.523 14.6875C20.8143 22.9091 20.2457 31.6812 24.6693 40.9692L24.658 40.9807Z" fill="#ED923A" fill-opacity="0.3"/>
<path fill-rule="evenodd" clip-rule="evenodd" d="M33.3761 26.6246C32.8303 21.7971 36.8787 19.5267 38.0613 15.6739C39.244 11.8211 37.4586 10.3075 37.1516 7.58984C32.2389 12.9792 30.9994 19.3318 33.3648 26.6246H33.3761Z" fill="#ED923A" fill-opacity="0.3"/>
<path fill-rule="evenodd" clip-rule="evenodd" d="M42.0039 14.9394C42.8341 10.7425 46.7801 10.1348 48.7702 7.30253C50.7717 4.47025 49.7027 2.64705 50.169 0.273438C44.6877 3.19745 41.9926 8.11667 42.0039 14.9394Z" fill="#ED923A" fill-opacity="0.3"/>
<path fill-rule="evenodd" clip-rule="evenodd" d="M76.7379 154.01C71.5864 147.899 75.0662 140.663 73.1671 134.15C71.268 127.625 67.4471 127.35 64.5358 123.91C62.705 136.306 66.833 146.339 76.7379 154.022V154.01Z" fill="#ED923A" fill-opacity="0.3"/>
<path fill-rule="evenodd" clip-rule="evenodd" d="M61.7659 146.705C56.7509 140.639 60.3103 133.403 58.5363 126.913C56.7622 120.423 52.9754 120.159 50.1438 116.742C48.131 129.103 52.077 139.091 61.7659 146.705Z" fill="#ED923A" fill-opacity="0.3"/>
<path fill-rule="evenodd" clip-rule="evenodd" d="M45.0549 132.886C41.8139 126.293 46.4991 120.64 46.2489 114.425C45.9988 108.199 42.6554 107.086 40.8245 103.371C36.4691 113.978 37.9475 123.828 45.0549 132.898V132.886Z" fill="#ED923A" fill-opacity="0.3"/>
<path fill-rule="evenodd" clip-rule="evenodd" d="M32.309 115.686C30.535 108.933 35.8798 104.678 36.8009 98.8762C37.7106 93.0741 34.8449 91.3655 33.8328 87.5586C27.8739 96.4568 27.4191 105.859 32.309 115.686Z" fill="#ED923A" fill-opacity="0.3"/>
<path fill-rule="evenodd" clip-rule="evenodd" d="M24.9398 94.6682C24.2461 88.4532 29.4772 85.5292 31.001 80.5641C32.5362 75.599 30.2391 73.6612 29.8525 70.1523C23.5069 77.0782 21.9035 85.2769 24.9398 94.6682Z" fill="#ED923A" fill-opacity="0.3"/>
<path fill-rule="evenodd" clip-rule="evenodd" d="M23.6623 72.8821C24.3674 67.2979 29.4847 66.0594 31.8501 62.1264C34.2154 58.1933 32.6461 55.9229 33.0327 52.7695C26.1073 57.2071 23.0141 63.9381 23.6623 72.8821Z" fill="#ED923A" fill-opacity="0.3"/>
<path fill-rule="evenodd" clip-rule="evenodd" d="M26.7891 52.3913C28.5517 47.7817 33.146 47.9996 35.9776 45.2247C38.7978 42.4382 37.9449 40.099 38.9343 37.4961C32.1339 39.5716 28.1082 44.5711 26.7891 52.3913Z" fill="#ED923A" fill-opacity="0.3"/>
<path fill-rule="evenodd" clip-rule="evenodd" d="M33.0703 36.7071C35.2423 33.0149 39.177 33.9895 42.02 32.0631C44.8516 30.1367 44.4422 27.958 45.6704 25.8711C39.5182 26.5018 35.3333 30.1482 33.0703 36.7071Z" fill="#ED923A" fill-opacity="0.3"/>
<path fill-rule="evenodd" clip-rule="evenodd" d="M40.9844 22.7368C43.0427 19.9389 46.1586 21.1085 48.6036 19.8128C51.0485 18.5171 50.9007 16.7053 52.0606 15.1229C47.0229 15.0427 43.3384 17.6112 40.9844 22.7253V22.7368Z" fill="#ED923A" fill-opacity="0.3"/>
<path fill-rule="evenodd" clip-rule="evenodd" d="M50.3828 9.78085C52.3502 6.44404 55.8982 7.32698 58.4569 5.58404C61.0155 3.85256 60.6516 1.88029 61.7547 -0.0117188C56.1939 0.55015 52.4184 3.85256 50.3828 9.76939V9.78085Z" fill="#ED923A" fill-opacity="0.3"/>
</g>
<g clip-path="url(#clip1_1376_1421)">
<path fill-rule="evenodd" clip-rule="evenodd" d="M262.578 11.9258C276.964 26.3738 286.539 46.6126 288.017 69.4428C291.031 116.204 258.905 156.097 216.261 158.551L216.659 164.766C260.6 162.231 293.692 121.135 290.587 72.9516C289.007 48.4817 278.397 26.9013 262.567 11.9258H262.578Z" fill="#ED923A" fill-opacity="0.3"/>
<path fill-rule="evenodd" clip-rule="evenodd" d="M243.655 159.915C251.968 162.632 256.949 154.892 263.988 153.666C271.027 152.439 273.233 156.67 277.93 158.206C267.308 166.749 255.857 167.242 243.666 159.915H243.655Z" fill="#ED923A" fill-opacity="0.3"/>
<path fill-rule="evenodd" clip-rule="evenodd" d="M258.642 148.747C267.239 149.573 270.696 140.835 277.338 138.049C283.979 135.262 286.89 138.943 291.734 139.413C282.91 150.203 271.845 153.242 258.642 148.747Z" fill="#ED923A" fill-opacity="0.3"/>
<path fill-rule="evenodd" clip-rule="evenodd" d="M274.548 131.58C282.235 130.926 284.123 122.613 289.604 119.081C295.097 115.549 298.144 118.336 302.488 117.969C296.154 128.965 286.795 133.449 274.536 131.58H274.548Z" fill="#ED923A" fill-opacity="0.3"/>
<path fill-rule="evenodd" clip-rule="evenodd" d="M283.301 114.966C290.318 112.684 290.556 104.508 295.003 100.013C299.449 95.5185 302.793 97.4679 306.75 96.1836C302.861 107.834 294.991 114.049 283.29 114.955L283.301 114.966Z" fill="#ED923A" fill-opacity="0.3"/>
<path fill-rule="evenodd" clip-rule="evenodd" d="M288.826 97.9273C295.353 94.3267 294.285 86.2083 297.935 80.9221C301.585 75.636 305.179 76.9202 308.863 74.8906C306.907 87.1485 300.175 94.7854 288.826 97.9273Z" fill="#ED923A" fill-opacity="0.3"/>
<path fill-rule="evenodd" clip-rule="evenodd" d="M290.45 79.3478C296.068 74.2681 293.418 66.5625 295.909 60.508C298.399 54.4536 302.152 54.855 305.325 51.9883C305.859 64.4641 300.844 73.5686 290.45 79.3478Z" fill="#ED923A" fill-opacity="0.3"/>
<path fill-rule="evenodd" clip-rule="evenodd" d="M288.331 58.5845C291.993 52.5071 287.831 46.4986 288.547 40.4671C289.252 34.4241 292.607 33.7017 294.677 30.2617C298.145 41.0634 295.973 50.5119 288.331 58.5845Z" fill="#ED923A" fill-opacity="0.3"/>
<path fill-rule="evenodd" clip-rule="evenodd" d="M284.201 40.9807C285.759 34.6281 280.687 30.7524 279.744 25.3401C278.8 19.9278 281.461 18.2766 282.336 14.6875C288.045 22.9091 288.614 31.6812 284.19 40.9692L284.201 40.9807Z" fill="#ED923A" fill-opacity="0.3"/>
<path fill-rule="evenodd" clip-rule="evenodd" d="M275.487 26.6246C276.033 21.7971 271.985 19.5267 270.802 15.6739C269.619 11.8211 271.405 10.3075 271.712 7.58984C276.624 12.9792 277.864 19.3318 275.499 26.6246H275.487Z" fill="#ED923A" fill-opacity="0.3"/>
<path fill-rule="evenodd" clip-rule="evenodd" d="M266.859 14.9433C266.029 10.7464 262.083 10.1387 260.093 7.30644C258.092 4.47416 259.161 2.65095 258.694 0.277344C264.176 3.20135 266.871 8.12057 266.859 14.9433Z" fill="#ED923A" fill-opacity="0.3"/>
<path fill-rule="evenodd" clip-rule="evenodd" d="M232.125 154.01C237.277 147.899 233.797 140.663 235.696 134.15C237.595 127.625 241.416 127.35 244.327 123.91C246.158 136.306 242.03 146.339 232.125 154.022V154.01Z" fill="#ED923A" fill-opacity="0.3"/>
<path fill-rule="evenodd" clip-rule="evenodd" d="M247.093 146.705C252.109 140.639 248.549 133.403 250.323 126.913C252.097 120.423 255.884 120.159 258.716 116.742C260.728 129.103 256.782 139.091 247.093 146.705Z" fill="#ED923A" fill-opacity="0.3"/>
<path fill-rule="evenodd" clip-rule="evenodd" d="M263.812 132.886C267.053 126.293 262.368 120.64 262.618 114.425C262.868 108.199 266.212 107.086 268.043 103.371C272.398 113.978 270.92 123.828 263.812 132.898V132.886Z" fill="#ED923A" fill-opacity="0.3"/>
<path fill-rule="evenodd" clip-rule="evenodd" d="M276.554 115.686C278.328 108.933 272.984 104.678 272.062 98.8762C271.153 93.0741 274.018 91.3655 275.03 87.5586C280.989 96.4568 281.444 105.859 276.554 115.686Z" fill="#ED923A" fill-opacity="0.3"/>
<path fill-rule="evenodd" clip-rule="evenodd" d="M283.923 94.6682C284.617 88.4532 279.386 85.5292 277.862 80.5641C276.327 75.599 278.624 73.6612 279.011 70.1523C285.356 77.0782 286.96 85.2769 283.923 94.6682Z" fill="#ED923A" fill-opacity="0.3"/>
<path fill-rule="evenodd" clip-rule="evenodd" d="M285.213 72.8821C284.508 67.2979 279.39 66.0594 277.025 62.1264C274.66 58.1933 276.229 55.9229 275.842 52.7695C282.768 57.2071 285.861 63.9381 285.213 72.8821Z" fill="#ED923A" fill-opacity="0.3"/>
<path fill-rule="evenodd" clip-rule="evenodd" d="M282.078 52.3913C280.315 47.7817 275.721 47.9996 272.89 45.2247C270.069 42.4382 270.922 40.099 269.933 37.4961C276.733 39.5716 280.759 44.5711 282.078 52.3913Z" fill="#ED923A" fill-opacity="0.3"/>
<path fill-rule="evenodd" clip-rule="evenodd" d="M275.797 36.7071C273.625 33.0149 269.69 33.9895 266.847 32.0631C264.016 30.1367 264.425 27.958 263.197 25.8711C269.349 26.5018 273.534 30.1482 275.797 36.7071Z" fill="#ED923A" fill-opacity="0.3"/>
<path fill-rule="evenodd" clip-rule="evenodd" d="M267.879 22.7368C265.821 19.9389 262.705 21.1085 260.26 19.8128C257.815 18.5171 257.963 16.7053 256.803 15.1229C261.84 15.0427 265.525 17.6112 267.879 22.7253V22.7368Z" fill="#ED923A" fill-opacity="0.3"/>
<path fill-rule="evenodd" clip-rule="evenodd" d="M258.477 9.78085C256.509 6.44404 252.961 7.32698 250.403 5.58404C247.844 3.85256 248.208 1.88029 247.105 -0.0117188C252.666 0.55015 256.441 3.85256 258.477 9.76939V9.78085Z" fill="#ED923A" fill-opacity="0.3"/>
</g>
<defs>
<linearGradient id="paint0_linear_1376_1421" x1="93.0352" y1="82.8203" x2="216.035" y2="82.8203" gradientUnits="userSpaceOnUse">
<stop stop-color="#010E39"/>
<stop offset="1" stop-color="#0344A2"/>
</linearGradient>
<clipPath id="clip0_1376_1421">
<rect width="92.59" height="165.052" fill="white"/>
</clipPath>
<clipPath id="clip1_1376_1421">
<rect width="92.59" height="165.052" fill="white" transform="matrix(-1 0 0 1 308.863 0)"/>
</clipPath>
</defs>
</svg>
