<svg width="309" height="166" viewBox="0 0 309 166" fill="none" xmlns="http://www.w3.org/2000/svg">
<path d="M131.024 47.4994C132.243 47.4994 133.326 47.7315 134.273 48.1956C135.228 48.6598 135.979 49.3424 136.525 50.2434C137.071 51.1444 137.344 52.2547 137.344 53.5744C137.344 55.0123 137.044 56.2546 136.443 57.3013C135.852 58.3388 134.965 59.1351 133.781 59.6903C132.607 60.2454 131.142 60.523 129.386 60.523C128.339 60.523 127.351 60.432 126.423 60.25C125.504 60.0771 124.699 59.8086 124.007 59.4446V55.7996C124.699 56.1636 125.527 56.4731 126.491 56.7279C127.465 56.9736 128.38 57.0965 129.235 57.0965C130.073 57.0965 130.778 56.9873 131.351 56.7688C131.925 56.5413 132.357 56.1955 132.648 55.7313C132.949 55.2581 133.099 54.6574 133.099 53.9293C133.099 52.9555 132.771 52.2092 132.116 51.6905C131.461 51.1717 130.455 50.9123 129.099 50.9123C128.58 50.9123 128.039 50.9624 127.474 51.0625C126.919 51.1626 126.455 51.2627 126.082 51.3628L124.403 50.4618L125.154 40.2914H135.979V43.8681H128.853L128.485 47.7861C128.794 47.7224 129.131 47.6587 129.495 47.595C129.859 47.5313 130.368 47.4994 131.024 47.4994ZM153.604 50.2707C153.604 51.8816 153.476 53.3195 153.221 54.5846C152.976 55.8496 152.575 56.9236 152.02 57.8064C151.474 58.6892 150.755 59.3626 149.863 59.8268C148.971 60.291 147.888 60.523 146.614 60.523C145.012 60.523 143.697 60.118 142.669 59.308C141.64 58.4889 140.88 57.3149 140.389 55.7859C139.897 54.2478 139.652 52.4094 139.652 50.2707C139.652 48.1137 139.875 46.2708 140.321 44.7418C140.776 43.2037 141.513 42.0251 142.532 41.206C143.551 40.3869 144.912 39.9774 146.614 39.9774C148.207 39.9774 149.517 40.3869 150.546 41.206C151.583 42.016 152.352 43.1901 152.853 44.7281C153.353 46.2571 153.604 48.1046 153.604 50.2707ZM143.843 50.2707C143.843 51.7906 143.925 53.0602 144.088 54.0795C144.261 55.0897 144.548 55.8496 144.948 56.3593C145.349 56.869 145.904 57.1238 146.614 57.1238C147.315 57.1238 147.865 56.8735 148.266 56.3729C148.675 55.8633 148.967 55.1033 149.139 54.0931C149.312 53.0738 149.399 51.7997 149.399 50.2707C149.399 48.7508 149.312 47.4812 149.139 46.4619C148.967 45.4426 148.675 44.6781 148.266 44.1684C147.865 43.6497 147.315 43.3903 146.614 43.3903C145.904 43.3903 145.349 43.6497 144.948 44.1684C144.548 44.6781 144.261 45.4426 144.088 46.4619C143.925 47.4812 143.843 48.7508 143.843 50.2707ZM169.603 50.2707C169.603 51.8816 169.476 53.3195 169.221 54.5846C168.975 55.8496 168.575 56.9236 168.02 57.8064C167.474 58.6892 166.755 59.3626 165.863 59.8268C164.971 60.291 163.888 60.523 162.614 60.523C161.012 60.523 159.697 60.118 158.668 59.308C157.64 58.4889 156.88 57.3149 156.388 55.7859C155.897 54.2478 155.651 52.4094 155.651 50.2707C155.651 48.1137 155.874 46.2708 156.32 44.7418C156.775 43.2037 157.512 42.0251 158.532 41.206C159.551 40.3869 160.912 39.9774 162.614 39.9774C164.206 39.9774 165.517 40.3869 166.545 41.206C167.583 42.016 168.352 43.1901 168.852 44.7281C169.353 46.2571 169.603 48.1046 169.603 50.2707ZM159.842 50.2707C159.842 51.7906 159.924 53.0602 160.088 54.0795C160.261 55.0897 160.548 55.8496 160.948 56.3593C161.349 56.869 161.904 57.1238 162.614 57.1238C163.314 57.1238 163.865 56.8735 164.265 56.3729C164.675 55.8633 164.966 55.1033 165.139 54.0931C165.312 53.0738 165.398 51.7997 165.398 50.2707C165.398 48.7508 165.312 47.4812 165.139 46.4619C164.966 45.4426 164.675 44.6781 164.265 44.1684C163.865 43.6497 163.314 43.3903 162.614 43.3903C161.904 43.3903 161.349 43.6497 160.948 44.1684C160.548 44.6781 160.261 45.4426 160.088 46.4619C159.924 47.4812 159.842 48.7508 159.842 50.2707ZM180.115 48.9055H185.398V51.8952H180.115V57.1511H177.125V51.8952H171.842V48.9055H177.125V43.5814H180.115V48.9055ZM88.3762 80.1069C88.3762 82.1274 87.6845 83.6837 86.3011 84.7758C84.9269 85.8588 82.9565 86.4003 80.39 86.4003H78.0419V94.25H75.7212V74.2914H80.8951C85.8825 74.2914 88.3762 76.2299 88.3762 80.1069ZM78.0419 84.4072H80.1306C82.1875 84.4072 83.6755 84.075 84.5947 83.4106C85.5139 82.7463 85.9735 81.6814 85.9735 80.2162C85.9735 78.8965 85.5412 77.9136 84.6766 77.2674C83.812 76.6212 82.465 76.2982 80.6357 76.2982H78.0419V84.4072ZM101.427 94.25L100.977 92.1204H100.867C100.121 93.0578 99.3748 93.6948 98.6285 94.0316C97.8913 94.3592 96.9676 94.523 95.8573 94.523C94.3738 94.523 93.2089 94.1408 92.3625 93.3763C91.5252 92.6118 91.1065 91.5242 91.1065 90.1136C91.1065 87.092 93.5228 85.5084 98.3555 85.3628L100.895 85.2809V84.3526C100.895 83.1786 100.64 82.314 100.13 81.7588C99.6297 81.1945 98.8242 80.9124 97.7139 80.9124C96.467 80.9124 95.0564 81.2946 93.4819 82.0591L92.7857 80.3254C93.5228 79.9249 94.3283 79.6109 95.202 79.3834C96.0848 79.1559 96.9676 79.0421 97.8504 79.0421C99.6342 79.0421 100.954 79.438 101.809 80.2298C102.674 81.0216 103.106 82.2912 103.106 84.0386V94.25H101.427ZM96.3078 92.6528C97.7184 92.6528 98.8242 92.266 99.6251 91.4924C100.435 90.7188 100.84 89.6358 100.84 88.2433V86.8918L98.5739 86.9874C96.7719 87.0511 95.4705 87.3332 94.6696 87.8338C93.8778 88.3252 93.4819 89.0942 93.4819 90.1409C93.4819 90.96 93.7276 91.5834 94.2191 92.0111C94.7196 92.4389 95.4159 92.6528 96.3078 92.6528ZM114.615 79.0148C115.279 79.0148 115.875 79.0694 116.403 79.1786L116.089 81.281C115.47 81.1445 114.924 81.0762 114.451 81.0762C113.24 81.0762 112.203 81.5677 111.338 82.5506C110.483 83.5335 110.055 84.7576 110.055 86.2229V94.25H107.789V79.2879H109.659L109.918 82.0591H110.028C110.583 81.0853 111.252 80.3345 112.034 79.8066C112.817 79.2788 113.677 79.0148 114.615 79.0148ZM124.034 92.6528C124.435 92.6528 124.821 92.6255 125.195 92.5709C125.568 92.5071 125.863 92.4434 126.082 92.3797V94.1135C125.836 94.2318 125.472 94.3274 124.99 94.4002C124.517 94.4821 124.089 94.523 123.707 94.523C120.812 94.523 119.365 92.9986 119.365 89.9497V81.0489H117.222V79.9568L119.365 79.0148L120.321 75.8203H121.631V79.2879H125.973V81.0489H121.631V89.8542C121.631 90.7552 121.845 91.4469 122.273 91.9292C122.701 92.4116 123.288 92.6528 124.034 92.6528ZM131.351 94.25H129.085V79.2879H131.351V94.25ZM128.894 75.2333C128.894 74.7146 129.022 74.3369 129.276 74.1002C129.531 73.8545 129.85 73.7317 130.232 73.7317C130.596 73.7317 130.91 73.8545 131.174 74.1002C131.438 74.346 131.57 74.7237 131.57 75.2333C131.57 75.743 131.438 76.1252 131.174 76.3801C130.91 76.6258 130.596 76.7487 130.232 76.7487C129.85 76.7487 129.531 76.6258 129.276 76.3801C129.022 76.1252 128.894 75.743 128.894 75.2333ZM142.136 94.523C139.97 94.523 138.291 93.8587 137.099 92.5299C135.916 91.192 135.324 89.3036 135.324 86.8645C135.324 84.3617 135.925 82.4277 137.126 81.0626C138.336 79.6974 140.057 79.0148 142.286 79.0148C143.005 79.0148 143.724 79.0922 144.443 79.2469C145.162 79.4016 145.727 79.5836 146.136 79.793L145.44 81.7178C144.939 81.5176 144.393 81.3538 143.802 81.2264C143.21 81.0899 142.687 81.0216 142.232 81.0216C139.192 81.0216 137.672 82.9601 137.672 86.8372C137.672 88.6756 138.041 90.0863 138.778 91.0692C139.524 92.0521 140.625 92.5436 142.082 92.5436C143.328 92.5436 144.607 92.2751 145.918 91.7381V93.7449C144.917 94.2637 143.656 94.523 142.136 94.523ZM151.747 94.25H149.481V79.2879H151.747V94.25ZM149.29 75.2333C149.29 74.7146 149.417 74.3369 149.672 74.1002C149.927 73.8545 150.245 73.7317 150.627 73.7317C150.991 73.7317 151.305 73.8545 151.569 74.1002C151.833 74.346 151.965 74.7237 151.965 75.2333C151.965 75.743 151.833 76.1252 151.569 76.3801C151.305 76.6258 150.991 76.7487 150.627 76.7487C150.245 76.7487 149.927 76.6258 149.672 76.3801C149.417 76.1252 149.29 75.743 149.29 75.2333ZM163.515 94.523C162.541 94.523 161.649 94.3456 160.839 93.9906C160.038 93.6266 159.364 93.0714 158.818 92.3251H158.655C158.764 93.1988 158.818 94.027 158.818 94.8097V100.967H156.552V79.2879H158.395L158.709 81.3356H158.818C159.401 80.5165 160.079 79.9249 160.852 79.5609C161.626 79.1968 162.513 79.0148 163.515 79.0148C165.499 79.0148 167.028 79.6929 168.101 81.0489C169.185 82.405 169.726 84.3071 169.726 86.7553C169.726 89.2126 169.175 91.1238 168.074 92.4889C166.982 93.845 165.462 94.523 163.515 94.523ZM163.187 80.9397C161.658 80.9397 160.552 81.3629 159.87 82.2093C159.187 83.0557 158.837 84.4027 158.818 86.2502V86.7553C158.818 88.8576 159.169 90.3638 159.87 91.274C160.57 92.175 161.694 92.6255 163.242 92.6255C164.534 92.6255 165.544 92.1021 166.272 91.0555C167.009 90.0089 167.378 88.5664 167.378 86.728C167.378 84.8623 167.009 83.4334 166.272 82.4414C165.544 81.4403 164.516 80.9397 163.187 80.9397ZM182.9 94.25L182.449 92.1204H182.34C181.594 93.0578 180.848 93.6948 180.101 94.0316C179.364 94.3592 178.44 94.523 177.33 94.523C175.846 94.523 174.682 94.1408 173.835 93.3763C172.998 92.6118 172.579 91.5242 172.579 90.1136C172.579 87.092 174.996 85.5084 179.828 85.3628L182.367 85.2809V84.3526C182.367 83.1786 182.113 82.314 181.603 81.7588C181.102 81.1945 180.297 80.9124 179.187 80.9124C177.94 80.9124 176.529 81.2946 174.955 82.0591L174.258 80.3254C174.996 79.9249 175.801 79.6109 176.675 79.3834C177.557 79.1559 178.44 79.0421 179.323 79.0421C181.107 79.0421 182.427 79.438 183.282 80.2298C184.147 81.0216 184.579 82.2912 184.579 84.0386V94.25H182.9ZM177.78 92.6528C179.191 92.6528 180.297 92.266 181.098 91.4924C181.908 90.7188 182.313 89.6358 182.313 88.2433V86.8918L180.047 86.9874C178.245 87.0511 176.943 87.3332 176.142 87.8338C175.35 88.3252 174.955 89.0942 174.955 90.1409C174.955 90.96 175.2 91.5834 175.692 92.0111C176.192 92.4389 176.889 92.6528 177.78 92.6528ZM194.094 92.6528C194.495 92.6528 194.881 92.6255 195.255 92.5709C195.628 92.5071 195.923 92.4434 196.142 92.3797V94.1135C195.896 94.2318 195.532 94.3274 195.05 94.4002C194.576 94.4821 194.149 94.523 193.766 94.523C190.872 94.523 189.425 92.9986 189.425 89.9497V81.0489H187.282V79.9568L189.425 79.0148L190.381 75.8203H191.691V79.2879H196.033V81.0489H191.691V89.8542C191.691 90.7552 191.905 91.4469 192.333 91.9292C192.761 92.4116 193.348 92.6528 194.094 92.6528ZM201.411 94.25H199.145V79.2879H201.411V94.25ZM198.954 75.2333C198.954 74.7146 199.082 74.3369 199.336 74.1002C199.591 73.8545 199.91 73.7317 200.292 73.7317C200.656 73.7317 200.97 73.8545 201.234 74.1002C201.498 74.346 201.63 74.7237 201.63 75.2333C201.63 75.743 201.498 76.1252 201.234 76.3801C200.97 76.6258 200.656 76.7487 200.292 76.7487C199.91 76.7487 199.591 76.6258 199.336 76.3801C199.082 76.1252 198.954 75.743 198.954 75.2333ZM216.455 94.25V84.571C216.455 83.3515 216.178 82.4414 215.623 81.8407C215.068 81.24 214.198 80.9397 213.015 80.9397C211.45 80.9397 210.303 81.3629 209.575 82.2093C208.847 83.0557 208.483 84.4527 208.483 86.4003V94.25H206.217V79.2879H208.06L208.428 81.3356H208.538C209.002 80.5984 209.652 80.0296 210.49 79.6291C211.327 79.2196 212.26 79.0148 213.288 79.0148C215.09 79.0148 216.446 79.4517 217.356 80.3254C218.267 81.19 218.722 82.5779 218.722 84.4891V94.25H216.455ZM235.636 79.2879V80.7213L232.865 81.0489C233.119 81.3674 233.347 81.7861 233.547 82.3049C233.747 82.8145 233.848 83.3924 233.848 84.0386C233.848 85.5039 233.347 86.6734 232.346 87.5471C231.345 88.4208 229.971 88.8576 228.223 88.8576C227.777 88.8576 227.359 88.8212 226.967 88.7484C226.002 89.2581 225.52 89.8997 225.52 90.6733C225.52 91.0828 225.688 91.3877 226.025 91.5879C226.362 91.7791 226.94 91.8746 227.759 91.8746H230.407C232.027 91.8746 233.27 92.2159 234.134 92.8985C235.008 93.5811 235.445 94.5731 235.445 95.8745C235.445 97.5309 234.78 98.7914 233.452 99.656C232.123 100.53 230.184 100.967 227.636 100.967C225.679 100.967 224.169 100.603 223.104 99.8745C222.048 99.1464 221.52 98.118 221.52 96.7892C221.52 95.8791 221.811 95.0918 222.394 94.4275C222.976 93.7631 223.795 93.3126 224.851 93.076C224.469 92.903 224.146 92.6346 223.882 92.2705C223.627 91.9065 223.5 91.4833 223.5 91.0009C223.5 90.4549 223.645 89.9771 223.937 89.5675C224.228 89.158 224.687 88.7621 225.315 88.3798C224.542 88.0613 223.909 87.5198 223.418 86.7553C222.935 85.9908 222.694 85.1171 222.694 84.1342C222.694 82.496 223.186 81.2355 224.169 80.3527C225.151 79.4608 226.544 79.0148 228.346 79.0148C229.129 79.0148 229.834 79.1058 230.462 79.2879H235.636ZM223.704 96.7619C223.704 97.5719 224.046 98.1862 224.728 98.6049C225.411 99.0235 226.389 99.2328 227.663 99.2328C229.566 99.2328 230.972 98.9461 231.882 98.3728C232.801 97.8085 233.261 97.0395 233.261 96.0657C233.261 95.2557 233.01 94.6914 232.51 94.3729C232.009 94.0634 231.067 93.9087 229.684 93.9087H226.967C225.939 93.9087 225.138 94.1544 224.564 94.6459C223.991 95.1374 223.704 95.8427 223.704 96.7619ZM224.933 84.0796C224.933 85.1262 225.229 85.918 225.82 86.4549C226.412 86.9919 227.236 87.2604 228.291 87.2604C230.503 87.2604 231.609 86.1865 231.609 84.0386C231.609 81.7906 230.489 80.6667 228.25 80.6667C227.186 80.6667 226.366 80.9533 225.793 81.5267C225.22 82.1001 224.933 82.951 224.933 84.0796ZM114.983 122.94C114.983 124.696 114.346 126.066 113.072 127.049C111.798 128.032 110.069 128.523 107.884 128.523C105.518 128.523 103.698 128.218 102.424 127.608V125.37C103.243 125.715 104.135 125.988 105.099 126.189C106.064 126.389 107.02 126.489 107.966 126.489C109.513 126.489 110.678 126.198 111.461 125.615C112.244 125.024 112.635 124.205 112.635 123.158C112.635 122.466 112.494 121.902 112.212 121.465C111.939 121.019 111.475 120.61 110.819 120.237C110.173 119.863 109.186 119.44 107.857 118.967C106 118.303 104.672 117.515 103.871 116.605C103.079 115.695 102.683 114.507 102.683 113.042C102.683 111.504 103.261 110.28 104.417 109.37C105.573 108.46 107.102 108.005 109.004 108.005C110.988 108.005 112.813 108.369 114.478 109.097L113.754 111.117C112.107 110.426 110.505 110.08 108.949 110.08C107.72 110.08 106.76 110.344 106.069 110.872C105.377 111.399 105.031 112.132 105.031 113.069C105.031 113.761 105.159 114.33 105.413 114.776C105.668 115.213 106.096 115.618 106.697 115.991C107.306 116.355 108.235 116.76 109.482 117.206C111.575 117.952 113.013 118.753 113.795 119.609C114.587 120.464 114.983 121.574 114.983 122.94ZM124.703 128.523C122.537 128.523 120.858 127.859 119.666 126.53C118.483 125.192 117.891 123.304 117.891 120.864C117.891 118.362 118.492 116.428 119.693 115.063C120.903 113.697 122.623 113.015 124.853 113.015C125.572 113.015 126.291 113.092 127.01 113.247C127.729 113.402 128.293 113.584 128.703 113.793L128.007 115.718C127.506 115.518 126.96 115.354 126.369 115.226C125.777 115.09 125.254 115.022 124.799 115.022C121.759 115.022 120.239 116.96 120.239 120.837C120.239 122.676 120.608 124.086 121.345 125.069C122.091 126.052 123.192 126.544 124.648 126.544C125.895 126.544 127.174 126.275 128.485 125.738V127.745C127.483 128.264 126.223 128.523 124.703 128.523ZM142.286 128.25V118.571C142.286 117.351 142.009 116.441 141.454 115.841C140.898 115.24 140.029 114.94 138.846 114.94C137.272 114.94 136.12 115.367 135.392 116.223C134.673 117.078 134.314 118.48 134.314 120.428V128.25H132.048V107.008H134.314V113.438C134.314 114.212 134.277 114.853 134.205 115.363H134.341C134.787 114.644 135.42 114.08 136.239 113.67C137.067 113.251 138.009 113.042 139.065 113.042C140.894 113.042 142.264 113.479 143.174 114.353C144.093 115.217 144.552 116.596 144.552 118.489V128.25H142.286ZM162.136 120.755C162.136 123.194 161.521 125.101 160.293 126.475C159.064 127.84 157.367 128.523 155.201 128.523C153.863 128.523 152.675 128.209 151.638 127.581C150.6 126.953 149.799 126.052 149.235 124.878C148.671 123.704 148.389 122.33 148.389 120.755C148.389 118.316 148.998 116.419 150.218 115.063C151.437 113.697 153.13 113.015 155.296 113.015C157.39 113.015 159.05 113.711 160.279 115.104C161.517 116.496 162.136 118.38 162.136 120.755ZM150.737 120.755C150.737 122.666 151.119 124.123 151.883 125.124C152.648 126.125 153.772 126.625 155.255 126.625C156.739 126.625 157.863 126.129 158.627 125.137C159.401 124.136 159.788 122.676 159.788 120.755C159.788 118.853 159.401 117.411 158.627 116.428C157.863 115.436 156.73 114.94 155.228 114.94C153.745 114.94 152.625 115.427 151.87 116.4C151.114 117.374 150.737 118.826 150.737 120.755ZM179.036 120.755C179.036 123.194 178.422 125.101 177.193 126.475C175.965 127.84 174.267 128.523 172.101 128.523C170.764 128.523 169.576 128.209 168.538 127.581C167.501 126.953 166.7 126.052 166.136 124.878C165.571 123.704 165.289 122.33 165.289 120.755C165.289 118.316 165.899 116.419 167.119 115.063C168.338 113.697 170.031 113.015 172.197 113.015C174.29 113.015 175.951 113.711 177.18 115.104C178.418 116.496 179.036 118.38 179.036 120.755ZM167.637 120.755C167.637 122.666 168.02 124.123 168.784 125.124C169.549 126.125 170.673 126.625 172.156 126.625C173.639 126.625 174.763 126.129 175.528 125.137C176.302 124.136 176.688 122.676 176.688 120.755C176.688 118.853 176.302 117.411 175.528 116.428C174.763 115.436 173.63 114.94 172.129 114.94C170.645 114.94 169.526 115.427 168.77 116.4C168.015 117.374 167.637 118.826 167.637 120.755ZM185.289 128.25H183.023V107.008H185.289V128.25ZM199.746 124.168C199.746 125.561 199.227 126.635 198.19 127.39C197.152 128.145 195.696 128.523 193.821 128.523C191.837 128.523 190.29 128.209 189.18 127.581V125.479C189.899 125.843 190.668 126.129 191.487 126.339C192.315 126.548 193.111 126.653 193.876 126.653C195.059 126.653 195.969 126.466 196.606 126.093C197.243 125.711 197.562 125.133 197.562 124.359C197.562 123.777 197.307 123.281 196.797 122.871C196.297 122.453 195.314 121.961 193.848 121.397C192.456 120.878 191.464 120.428 190.872 120.045C190.29 119.654 189.853 119.213 189.562 118.721C189.28 118.23 189.139 117.643 189.139 116.96C189.139 115.741 189.635 114.78 190.627 114.08C191.619 113.37 192.979 113.015 194.708 113.015C196.319 113.015 197.894 113.342 199.432 113.998L198.626 115.841C197.125 115.222 195.764 114.912 194.545 114.912C193.471 114.912 192.661 115.081 192.115 115.418C191.569 115.754 191.296 116.218 191.296 116.81C191.296 117.21 191.396 117.552 191.596 117.834C191.805 118.116 192.137 118.384 192.592 118.639C193.048 118.894 193.921 119.263 195.214 119.745C196.988 120.391 198.185 121.042 198.804 121.697C199.432 122.353 199.746 123.176 199.746 124.168Z" fill="url(#paint0_linear_1376_1468)"/>
<g clip-path="url(#clip0_1376_1468)">
<path fill-rule="evenodd" clip-rule="evenodd" d="M46.2811 11.9258C31.8956 26.3738 22.3205 46.6126 20.8421 69.4428C17.8286 116.204 49.9542 156.097 92.5988 158.551L92.2008 164.766C48.2598 162.231 15.1675 121.135 18.2721 72.9516C19.8528 48.4817 30.4627 26.9013 46.2924 11.9258H46.2811Z" fill="#ED923A" fill-opacity="0.3"/>
<path fill-rule="evenodd" clip-rule="evenodd" d="M65.2046 159.915C56.8917 162.632 51.9108 154.892 44.8716 153.666C37.8324 152.439 35.6263 156.67 30.9297 158.206C41.551 166.749 53.0026 167.242 65.1932 159.915H65.2046Z" fill="#ED923A" fill-opacity="0.3"/>
<path fill-rule="evenodd" clip-rule="evenodd" d="M50.2251 148.747C41.6279 149.573 38.1708 140.835 31.5296 138.049C24.8885 135.262 21.9772 138.943 17.1328 139.413C25.9574 150.203 37.0223 153.242 50.2251 148.747Z" fill="#ED923A" fill-opacity="0.3"/>
<path fill-rule="evenodd" clip-rule="evenodd" d="M34.3197 131.58C26.6323 130.926 24.7445 122.613 19.2633 119.081C13.7706 115.549 10.723 118.336 6.37891 117.969C12.7131 128.965 22.0721 133.449 34.331 131.58H34.3197Z" fill="#ED923A" fill-opacity="0.3"/>
<path fill-rule="evenodd" clip-rule="evenodd" d="M25.5621 114.966C18.5457 112.684 18.3069 104.508 13.8605 100.013C9.41404 95.5185 6.0707 97.4679 2.11328 96.1836C6.00247 107.834 13.8718 114.049 25.5735 114.955L25.5621 114.966Z" fill="#ED923A" fill-opacity="0.3"/>
<path fill-rule="evenodd" clip-rule="evenodd" d="M20.0373 97.9273C13.5098 94.3267 14.5788 86.2083 10.9284 80.9221C7.27802 75.636 3.6845 76.9202 0 74.8906C1.95597 87.1485 8.68814 94.7854 20.0373 97.9273Z" fill="#ED923A" fill-opacity="0.3"/>
<path fill-rule="evenodd" clip-rule="evenodd" d="M18.4053 79.3478C12.7875 74.2681 15.4372 66.5625 12.9468 60.508C10.4563 54.4536 6.70358 54.855 3.53081 51.9883C2.99633 64.4641 8.01134 73.5686 18.4053 79.3478Z" fill="#ED923A" fill-opacity="0.3"/>
<path fill-rule="evenodd" clip-rule="evenodd" d="M20.5322 58.5845C16.8704 52.5071 21.0325 46.4986 20.3161 40.4671C19.611 34.4241 16.2563 33.7017 14.1866 30.2617C10.7182 41.0634 12.8902 50.5119 20.5322 58.5845Z" fill="#ED923A" fill-opacity="0.3"/>
<path fill-rule="evenodd" clip-rule="evenodd" d="M24.658 40.9807C23.1 34.6281 28.1719 30.7524 29.1157 25.3401C30.0596 19.9278 27.3986 18.2766 26.523 14.6875C20.8143 22.9091 20.2457 31.6812 24.6693 40.9692L24.658 40.9807Z" fill="#ED923A" fill-opacity="0.3"/>
<path fill-rule="evenodd" clip-rule="evenodd" d="M33.3761 26.6246C32.8303 21.7971 36.8787 19.5267 38.0613 15.6739C39.244 11.8211 37.4586 10.3075 37.1516 7.58984C32.2389 12.9792 30.9994 19.3318 33.3648 26.6246H33.3761Z" fill="#ED923A" fill-opacity="0.3"/>
<path fill-rule="evenodd" clip-rule="evenodd" d="M42.0039 14.9394C42.8341 10.7425 46.7801 10.1348 48.7702 7.30253C50.7717 4.47025 49.7027 2.64705 50.169 0.273438C44.6877 3.19745 41.9926 8.11667 42.0039 14.9394Z" fill="#ED923A" fill-opacity="0.3"/>
<path fill-rule="evenodd" clip-rule="evenodd" d="M76.7379 154.01C71.5864 147.899 75.0662 140.663 73.1671 134.15C71.268 127.625 67.4471 127.35 64.5358 123.91C62.705 136.306 66.833 146.339 76.7379 154.022V154.01Z" fill="#ED923A" fill-opacity="0.3"/>
<path fill-rule="evenodd" clip-rule="evenodd" d="M61.7659 146.705C56.7509 140.639 60.3103 133.403 58.5363 126.913C56.7622 120.423 52.9754 120.159 50.1438 116.742C48.131 129.103 52.077 139.091 61.7659 146.705Z" fill="#ED923A" fill-opacity="0.3"/>
<path fill-rule="evenodd" clip-rule="evenodd" d="M45.0471 132.886C41.8061 126.293 46.4913 120.64 46.2411 114.425C45.9909 108.199 42.6476 107.086 40.8167 103.371C36.4613 113.978 37.9396 123.828 45.0471 132.898V132.886Z" fill="#ED923A" fill-opacity="0.3"/>
<path fill-rule="evenodd" clip-rule="evenodd" d="M32.309 115.686C30.535 108.933 35.8798 104.678 36.8009 98.8762C37.7106 93.0741 34.8449 91.3655 33.8328 87.5586C27.8739 96.4568 27.4191 105.859 32.309 115.686Z" fill="#ED923A" fill-opacity="0.3"/>
<path fill-rule="evenodd" clip-rule="evenodd" d="M24.9398 94.6682C24.2461 88.4532 29.4772 85.5292 31.001 80.5641C32.5362 75.599 30.2391 73.6612 29.8525 70.1523C23.5069 77.0782 21.9035 85.2769 24.9398 94.6682Z" fill="#ED923A" fill-opacity="0.3"/>
<path fill-rule="evenodd" clip-rule="evenodd" d="M23.6506 72.8821C24.3556 67.2979 29.473 66.0594 31.8383 62.1264C34.2037 58.1933 32.6344 55.9229 33.021 52.7695C26.0955 57.2071 23.0024 63.9381 23.6506 72.8821Z" fill="#ED923A" fill-opacity="0.3"/>
<path fill-rule="evenodd" clip-rule="evenodd" d="M26.7852 52.3913C28.5478 47.7817 33.1421 47.9996 35.9737 45.2247C38.7939 42.4382 37.941 40.099 38.9304 37.4961C32.13 39.5716 28.1043 44.5711 26.7852 52.3913Z" fill="#ED923A" fill-opacity="0.3"/>
<path fill-rule="evenodd" clip-rule="evenodd" d="M33.0664 36.7071C35.2384 33.0149 39.1731 33.9895 42.0161 32.0631C44.8477 30.1367 44.4383 27.958 45.6665 25.8711C39.5143 26.5018 35.3294 30.1482 33.0664 36.7071Z" fill="#ED923A" fill-opacity="0.3"/>
<path fill-rule="evenodd" clip-rule="evenodd" d="M40.9766 22.7368C43.0349 19.9389 46.1508 21.1085 48.5957 19.8128C51.0407 18.5171 50.8929 16.7053 52.0528 15.1229C47.015 15.0427 43.3305 17.6112 40.9766 22.7253V22.7368Z" fill="#ED923A" fill-opacity="0.3"/>
<path fill-rule="evenodd" clip-rule="evenodd" d="M50.3828 9.78085C52.3502 6.44404 55.8982 7.32698 58.4569 5.58404C61.0155 3.85256 60.6516 1.88029 61.7547 -0.0117188C56.1939 0.55015 52.4184 3.85256 50.3828 9.76939V9.78085Z" fill="#ED923A" fill-opacity="0.3"/>
</g>
<g clip-path="url(#clip1_1376_1468)">
<path fill-rule="evenodd" clip-rule="evenodd" d="M262.578 11.9258C276.964 26.3738 286.539 46.6126 288.017 69.4428C291.031 116.204 258.905 156.097 216.261 158.551L216.659 164.766C260.6 162.231 293.692 121.135 290.587 72.9516C289.007 48.4817 278.397 26.9013 262.567 11.9258H262.578Z" fill="#ED923A" fill-opacity="0.3"/>
<path fill-rule="evenodd" clip-rule="evenodd" d="M243.655 159.915C251.968 162.632 256.949 154.892 263.988 153.666C271.027 152.439 273.233 156.67 277.93 158.206C267.308 166.749 255.857 167.242 243.666 159.915H243.655Z" fill="#ED923A" fill-opacity="0.3"/>
<path fill-rule="evenodd" clip-rule="evenodd" d="M258.63 148.747C267.228 149.573 270.685 140.835 277.326 138.049C283.967 135.262 286.878 138.943 291.723 139.413C282.898 150.203 271.833 153.242 258.63 148.747Z" fill="#ED923A" fill-opacity="0.3"/>
<path fill-rule="evenodd" clip-rule="evenodd" d="M274.548 131.58C282.235 130.926 284.123 122.613 289.604 119.081C295.097 115.549 298.144 118.336 302.488 117.969C296.154 128.965 286.795 133.449 274.536 131.58H274.548Z" fill="#ED923A" fill-opacity="0.3"/>
<path fill-rule="evenodd" clip-rule="evenodd" d="M283.301 114.966C290.318 112.684 290.556 104.508 295.003 100.013C299.449 95.5185 302.793 97.4679 306.75 96.1836C302.861 107.834 294.991 114.049 283.29 114.955L283.301 114.966Z" fill="#ED923A" fill-opacity="0.3"/>
<path fill-rule="evenodd" clip-rule="evenodd" d="M288.826 97.9273C295.353 94.3267 294.285 86.2083 297.935 80.9221C301.585 75.636 305.179 76.9202 308.863 74.8906C306.907 87.1485 300.175 94.7854 288.826 97.9273Z" fill="#ED923A" fill-opacity="0.3"/>
<path fill-rule="evenodd" clip-rule="evenodd" d="M290.45 79.3478C296.068 74.2681 293.418 66.5625 295.909 60.508C298.399 54.4536 302.152 54.855 305.325 51.9883C305.859 64.4641 300.844 73.5686 290.45 79.3478Z" fill="#ED923A" fill-opacity="0.3"/>
<path fill-rule="evenodd" clip-rule="evenodd" d="M288.323 58.5845C291.985 52.5071 287.823 46.4986 288.539 40.4671C289.244 34.4241 292.599 33.7017 294.669 30.2617C298.137 41.0634 295.965 50.5119 288.323 58.5845Z" fill="#ED923A" fill-opacity="0.3"/>
<path fill-rule="evenodd" clip-rule="evenodd" d="M284.201 40.9807C285.759 34.6281 280.687 30.7524 279.744 25.3401C278.8 19.9278 281.461 18.2766 282.336 14.6875C288.045 22.9091 288.614 31.6812 284.19 40.9692L284.201 40.9807Z" fill="#ED923A" fill-opacity="0.3"/>
<path fill-rule="evenodd" clip-rule="evenodd" d="M275.487 26.6246C276.033 21.7971 271.985 19.5267 270.802 15.6739C269.619 11.8211 271.405 10.3075 271.712 7.58984C276.624 12.9792 277.864 19.3318 275.499 26.6246H275.487Z" fill="#ED923A" fill-opacity="0.3"/>
<path fill-rule="evenodd" clip-rule="evenodd" d="M266.859 14.9433C266.029 10.7464 262.083 10.1387 260.093 7.30644C258.092 4.47416 259.161 2.65095 258.694 0.277344C264.176 3.20135 266.871 8.12057 266.859 14.9433Z" fill="#ED923A" fill-opacity="0.3"/>
<path fill-rule="evenodd" clip-rule="evenodd" d="M232.129 154.01C237.281 147.899 233.801 140.663 235.7 134.15C237.599 127.625 241.42 127.35 244.331 123.91C246.162 136.306 242.034 146.339 232.129 154.022V154.01Z" fill="#ED923A" fill-opacity="0.3"/>
<path fill-rule="evenodd" clip-rule="evenodd" d="M247.093 146.705C252.109 140.639 248.549 133.403 250.323 126.913C252.097 120.423 255.884 120.159 258.716 116.742C260.728 129.103 256.782 139.091 247.093 146.705Z" fill="#ED923A" fill-opacity="0.3"/>
<path fill-rule="evenodd" clip-rule="evenodd" d="M263.808 132.886C267.049 126.293 262.364 120.64 262.614 114.425C262.865 108.199 266.208 107.086 268.039 103.371C272.394 113.978 270.916 123.828 263.808 132.898V132.886Z" fill="#ED923A" fill-opacity="0.3"/>
<path fill-rule="evenodd" clip-rule="evenodd" d="M276.554 115.686C278.328 108.933 272.984 104.678 272.062 98.8762C271.153 93.0741 274.018 91.3655 275.03 87.5586C280.989 96.4568 281.444 105.859 276.554 115.686Z" fill="#ED923A" fill-opacity="0.3"/>
<path fill-rule="evenodd" clip-rule="evenodd" d="M283.92 94.6682C284.613 88.4532 279.382 85.5292 277.858 80.5641C276.323 75.599 278.62 73.6612 279.007 70.1523C285.352 77.0782 286.956 85.2769 283.92 94.6682Z" fill="#ED923A" fill-opacity="0.3"/>
<path fill-rule="evenodd" clip-rule="evenodd" d="M285.201 72.8821C284.496 67.2979 279.379 66.0594 277.013 62.1264C274.648 58.1933 276.217 55.9229 275.831 52.7695C282.756 57.2071 285.849 63.9381 285.201 72.8821Z" fill="#ED923A" fill-opacity="0.3"/>
<path fill-rule="evenodd" clip-rule="evenodd" d="M282.07 52.3913C280.308 47.7817 275.713 47.9996 272.882 45.2247C270.062 42.4382 270.914 40.099 269.925 37.4961C276.726 39.5716 280.751 44.5711 282.07 52.3913Z" fill="#ED923A" fill-opacity="0.3"/>
<path fill-rule="evenodd" clip-rule="evenodd" d="M275.801 36.7071C273.629 33.0149 269.694 33.9895 266.851 32.0631C264.019 30.1367 264.429 27.958 263.201 25.8711C269.353 26.5018 273.538 30.1482 275.801 36.7071Z" fill="#ED923A" fill-opacity="0.3"/>
<path fill-rule="evenodd" clip-rule="evenodd" d="M267.879 22.7368C265.821 19.9389 262.705 21.1085 260.26 19.8128C257.815 18.5171 257.963 16.7053 256.803 15.1229C261.84 15.0427 265.525 17.6112 267.879 22.7253V22.7368Z" fill="#ED923A" fill-opacity="0.3"/>
<path fill-rule="evenodd" clip-rule="evenodd" d="M258.477 9.78085C256.509 6.44404 252.961 7.32698 250.403 5.58404C247.844 3.85256 248.208 1.88029 247.105 -0.0117188C252.666 0.55015 256.441 3.85256 258.477 9.76939V9.78085Z" fill="#ED923A" fill-opacity="0.3"/>
</g>
<defs>
<linearGradient id="paint0_linear_1376_1468" x1="68.1445" y1="83.25" x2="241.138" y2="83.25" gradientUnits="userSpaceOnUse">
<stop stop-color="#010E39"/>
<stop offset="1" stop-color="#0344A2"/>
</linearGradient>
<clipPath id="clip0_1376_1468">
<rect width="92.59" height="165.052" fill="white"/>
</clipPath>
<clipPath id="clip1_1376_1468">
<rect width="92.59" height="165.052" fill="white" transform="matrix(-1 0 0 1 308.863 0)"/>
</clipPath>
</defs>
</svg>
