<svg width="309" height="166" viewBox="0 0 309 166" fill="none" xmlns="http://www.w3.org/2000/svg">
<path d="M107.488 60.1797H103.269V48.6304C103.269 48.3119 103.274 47.9206 103.283 47.4564C103.292 46.9831 103.306 46.5008 103.324 46.0093C103.342 45.5088 103.36 45.0583 103.379 44.6578C103.278 44.7761 103.074 44.9809 102.764 45.2721C102.464 45.5543 102.182 45.8091 101.918 46.0366L99.6243 47.8796L97.5902 45.3404L104.02 40.2211H107.488V60.1797ZM115.037 60.1797L122.532 43.7705H112.689V40.2211H127.009V42.8695L119.46 60.1797H115.037ZM146.19 43.4565C145.38 43.4565 144.661 43.6158 144.033 43.9343C143.414 44.2437 142.891 44.6942 142.463 45.2858C142.044 45.8774 141.726 46.5918 141.507 47.4291C141.289 48.2664 141.18 49.2084 141.18 50.255C141.18 51.6656 141.353 52.8715 141.699 53.8727C142.053 54.8647 142.6 55.6246 143.337 56.1525C144.074 56.6712 145.025 56.9306 146.19 56.9306C147 56.9306 147.81 56.8396 148.62 56.6576C149.439 56.4756 150.326 56.2162 151.282 55.8794V59.4288C150.399 59.7929 149.53 60.0523 148.674 60.207C147.819 60.3708 146.859 60.4527 145.794 60.4527C143.737 60.4527 142.044 60.0295 140.716 59.1831C139.396 58.3276 138.418 57.1354 137.781 55.6064C137.143 54.0683 136.825 52.2754 136.825 50.2277C136.825 48.7169 137.03 47.3335 137.439 46.0776C137.849 44.8216 138.449 43.7341 139.241 42.8149C140.033 41.8957 141.011 41.1858 142.176 40.6852C143.341 40.1847 144.679 39.9344 146.19 39.9344C147.182 39.9344 148.174 40.0618 149.166 40.3166C150.167 40.5623 151.123 40.9036 152.033 41.3405L150.668 44.7807C149.921 44.4257 149.171 44.1163 148.415 43.8524C147.66 43.5885 146.918 43.4565 146.19 43.4565ZM159.377 44.9172V60.1797H155.214V44.9172H159.377ZM157.302 38.9378C157.921 38.9378 158.454 39.0834 158.9 39.3747C159.345 39.6568 159.568 40.1892 159.568 40.9719C159.568 41.7455 159.345 42.2824 158.9 42.5828C158.454 42.874 157.921 43.0196 157.302 43.0196C156.674 43.0196 156.137 42.874 155.691 42.5828C155.255 42.2824 155.036 41.7455 155.036 40.9719C155.036 40.1892 155.255 39.6568 155.691 39.3747C156.137 39.0834 156.674 38.9378 157.302 38.9378ZM170.189 57.1354C170.644 57.1354 171.086 57.0899 171.514 56.9989C171.95 56.9079 172.383 56.7941 172.811 56.6576V59.7565C172.365 59.9567 171.809 60.1205 171.145 60.2479C170.49 60.3845 169.771 60.4527 168.988 60.4527C168.078 60.4527 167.259 60.3071 166.531 60.0159C165.812 59.7155 165.243 59.2013 164.824 58.4732C164.415 57.7361 164.21 56.7122 164.21 55.4016V48.0434H162.217V46.2824L164.51 44.8899L165.712 41.6681H168.374V44.9172H172.647V48.0434H168.374V55.4016C168.374 55.9841 168.538 56.4209 168.865 56.7122C169.202 56.9943 169.643 57.1354 170.189 57.1354ZM180.073 44.9172V60.1797H175.909V44.9172H180.073ZM177.998 38.9378C178.617 38.9378 179.149 39.0834 179.595 39.3747C180.041 39.6568 180.264 40.1892 180.264 40.9719C180.264 41.7455 180.041 42.2824 179.595 42.5828C179.149 42.874 178.617 43.0196 177.998 43.0196C177.37 43.0196 176.833 42.874 176.387 42.5828C175.95 42.2824 175.732 41.7455 175.732 40.9719C175.732 40.1892 175.95 39.6568 176.387 39.3747C176.833 39.0834 177.37 38.9378 177.998 38.9378ZM190.749 44.6305C192.159 44.6305 193.374 44.9036 194.394 45.4496C195.413 45.9866 196.2 46.7693 196.755 47.7977C197.311 48.8261 197.588 50.0821 197.588 51.5655V53.586H187.745C187.791 54.76 188.141 55.6838 188.797 56.3572C189.461 57.0216 190.38 57.3538 191.554 57.3538C192.528 57.3538 193.42 57.2537 194.23 57.0535C195.04 56.8532 195.873 56.5529 196.728 56.1525V59.3742C195.973 59.7474 195.181 60.0204 194.353 60.1933C193.534 60.3663 192.537 60.4527 191.363 60.4527C189.834 60.4527 188.478 60.1706 187.295 59.6063C186.121 59.0421 185.197 58.182 184.524 57.0262C183.859 55.8703 183.527 54.4142 183.527 52.6577C183.527 50.8739 183.827 49.3904 184.428 48.2072C185.038 47.015 185.884 46.1231 186.967 45.5315C188.05 44.9309 189.311 44.6305 190.749 44.6305ZM190.776 47.5929C189.966 47.5929 189.293 47.8523 188.756 48.3711C188.228 48.8898 187.923 49.7044 187.841 50.8147H193.684C193.675 50.1958 193.561 49.6452 193.343 49.1629C193.133 48.6805 192.815 48.2983 192.387 48.0161C191.968 47.734 191.431 47.5929 190.776 47.5929ZM211.622 55.6474C211.622 56.6849 211.376 57.5631 210.885 58.2821C210.402 58.992 209.679 59.5335 208.714 59.9067C207.749 60.2707 206.548 60.4527 205.11 60.4527C204.045 60.4527 203.131 60.3845 202.366 60.2479C201.611 60.1114 200.846 59.8839 200.073 59.5654V56.1252C200.901 56.4983 201.788 56.8077 202.735 57.0535C203.69 57.2901 204.528 57.4084 205.247 57.4084C206.057 57.4084 206.635 57.2901 206.98 57.0535C207.335 56.8077 207.513 56.4892 207.513 56.0979C207.513 55.843 207.44 55.6155 207.294 55.4153C207.158 55.206 206.858 54.9739 206.393 54.7191C205.929 54.4551 205.201 54.1138 204.209 53.6952C203.254 53.2947 202.466 52.8897 201.847 52.4802C201.238 52.0706 200.783 51.5883 200.482 51.0331C200.191 50.4689 200.045 49.7544 200.045 48.8898C200.045 47.4792 200.592 46.4189 201.684 45.709C202.785 44.99 204.255 44.6305 206.093 44.6305C207.04 44.6305 207.941 44.7261 208.796 44.9172C209.661 45.1083 210.548 45.4132 211.458 45.8319L210.202 48.8352C209.447 48.5076 208.732 48.2391 208.059 48.0298C207.395 47.8204 206.717 47.7158 206.025 47.7158C205.415 47.7158 204.955 47.7977 204.646 47.9615C204.337 48.1253 204.182 48.3756 204.182 48.7123C204.182 48.9581 204.259 49.1765 204.414 49.3676C204.578 49.5587 204.887 49.7726 205.342 50.0093C205.806 50.2368 206.484 50.5326 207.376 50.8966C208.241 51.2515 208.992 51.6247 209.629 52.016C210.266 52.3983 210.757 52.8761 211.103 53.4495C211.449 54.0137 211.622 54.7464 211.622 55.6474ZM101.522 94.1797L99.0646 87.8453H91.0648L88.6211 94.1797H86.2731L94.0818 74.1391H96.1705L103.925 94.1797H101.522ZM98.3684 85.784L96.0339 79.4906C95.9793 79.3268 95.8883 79.0583 95.7609 78.6851C95.6426 78.312 95.5197 77.9252 95.3923 77.5247C95.2649 77.1243 95.1602 76.8012 95.0783 76.5555C94.9873 76.9286 94.8872 77.3018 94.778 77.6749C94.6779 78.039 94.5778 78.3802 94.4777 78.6988C94.3776 79.0082 94.2911 79.2721 94.2183 79.4906L91.8429 85.784H98.3684ZM112.348 94.4527C111.001 94.4527 109.813 94.1751 108.785 93.62C107.756 93.0648 106.955 92.2184 106.382 91.0808C105.808 89.9431 105.522 88.5097 105.522 86.7805C105.522 84.9694 105.822 83.4905 106.423 82.3438C107.033 81.1879 107.87 80.3324 108.935 79.7773C110 79.2221 111.21 78.9445 112.566 78.9445C113.312 78.9445 114.031 79.0219 114.723 79.1766C115.424 79.3222 115.997 79.5088 116.443 79.7363L115.76 81.6339C115.305 81.4519 114.778 81.288 114.177 81.1424C113.585 80.9968 113.03 80.924 112.511 80.924C111.474 80.924 110.609 81.147 109.918 81.5929C109.235 82.0389 108.721 82.6941 108.375 83.5587C108.038 84.4233 107.87 85.4882 107.87 86.7532C107.87 87.9637 108.034 88.9966 108.361 89.8521C108.698 90.7076 109.194 91.3629 109.849 91.818C110.514 92.2639 111.342 92.4869 112.334 92.4869C113.126 92.4869 113.84 92.405 114.477 92.2412C115.114 92.0682 115.692 91.868 116.211 91.6405V93.6609C115.71 93.9158 115.151 94.1114 114.532 94.2479C113.922 94.3845 113.194 94.4527 112.348 94.4527ZM126.559 78.9445C126.859 78.9445 127.173 78.9627 127.501 78.9991C127.829 79.0264 128.12 79.0674 128.375 79.122L128.088 81.2243C127.842 81.1606 127.569 81.1106 127.269 81.0742C126.968 81.0378 126.686 81.0196 126.422 81.0196C125.822 81.0196 125.253 81.1424 124.716 81.3881C124.188 81.6248 123.724 81.9706 123.323 82.4257C122.923 82.8716 122.609 83.4131 122.382 84.0502C122.154 84.6782 122.04 85.379 122.04 86.1526V94.1797H119.76V79.2175H121.644L121.89 81.9752H121.986C122.295 81.42 122.668 80.9149 123.105 80.4598C123.542 79.9957 124.047 79.6271 124.62 79.3541C125.203 79.081 125.849 78.9445 126.559 78.9445ZM144.101 86.6713C144.101 87.9 143.942 88.9966 143.623 89.9613C143.305 90.9261 142.845 91.7406 142.245 92.405C141.644 93.0694 140.916 93.579 140.06 93.934C139.214 94.2798 138.254 94.4527 137.18 94.4527C136.179 94.4527 135.26 94.2798 134.422 93.934C133.594 93.579 132.875 93.0694 132.265 92.405C131.665 91.7406 131.196 90.9261 130.859 89.9613C130.532 88.9966 130.368 87.9 130.368 86.6713C130.368 85.0331 130.645 83.6407 131.2 82.4939C131.756 81.3381 132.547 80.4598 133.576 79.8592C134.613 79.2494 135.847 78.9445 137.275 78.9445C138.641 78.9445 139.833 79.2494 140.852 79.8592C141.881 80.4689 142.677 81.3517 143.241 82.5076C143.815 83.6543 144.101 85.0422 144.101 86.6713ZM132.716 86.6713C132.716 87.8727 132.875 88.9147 133.194 89.7975C133.512 90.6803 134.004 91.3629 134.668 91.8453C135.332 92.3276 136.188 92.5688 137.234 92.5688C138.272 92.5688 139.123 92.3276 139.787 91.8453C140.461 91.3629 140.957 90.6803 141.275 89.7975C141.594 88.9147 141.753 87.8727 141.753 86.6713C141.753 85.4791 141.594 84.4507 141.275 83.5861C140.957 82.7123 140.465 82.0389 139.801 81.5656C139.137 81.0924 138.277 80.8557 137.221 80.8557C135.665 80.8557 134.522 81.3699 133.794 82.3984C133.075 83.4268 132.716 84.8511 132.716 86.6713ZM157.698 90.0842C157.698 91.0398 157.457 91.8453 156.975 92.5005C156.501 93.1467 155.819 93.6336 154.927 93.9613C154.044 94.2889 152.988 94.4527 151.76 94.4527C150.713 94.4527 149.808 94.3708 149.043 94.207C148.279 94.0432 147.61 93.8111 147.036 93.5108V91.4221C147.646 91.7224 148.374 91.9954 149.221 92.2412C150.067 92.4869 150.932 92.6098 151.814 92.6098C153.107 92.6098 154.044 92.4004 154.627 91.9818C155.209 91.5631 155.5 90.9943 155.5 90.2753C155.5 89.8658 155.382 89.5063 155.145 89.1969C154.918 88.8783 154.531 88.5734 153.985 88.2822C153.439 87.9819 152.684 87.6542 151.719 87.2993C150.763 86.9352 149.935 86.5757 149.234 86.2208C148.543 85.8568 148.006 85.4154 147.623 84.8966C147.25 84.3778 147.064 83.7044 147.064 82.8762C147.064 81.6111 147.573 80.6419 148.593 79.9684C149.621 79.2858 150.968 78.9445 152.633 78.9445C153.534 78.9445 154.376 79.0355 155.159 79.2175C155.951 79.3905 156.688 79.6271 157.371 79.9274L156.606 81.7431C155.987 81.4792 155.327 81.2562 154.627 81.0742C153.926 80.8921 153.211 80.8011 152.483 80.8011C151.437 80.8011 150.631 80.974 150.067 81.3199C149.512 81.6657 149.234 82.139 149.234 82.7397C149.234 83.2038 149.362 83.5861 149.616 83.8864C149.88 84.1867 150.299 84.4689 150.872 84.7328C151.446 84.9967 152.201 85.3062 153.139 85.6611C154.076 86.0069 154.886 86.3664 155.569 86.7396C156.251 87.1036 156.774 87.5496 157.138 88.0774C157.512 88.5962 157.698 89.2651 157.698 90.0842ZM171.022 90.0842C171.022 91.0398 170.781 91.8453 170.299 92.5005C169.825 93.1467 169.143 93.6336 168.251 93.9613C167.368 94.2889 166.312 94.4527 165.084 94.4527C164.037 94.4527 163.132 94.3708 162.367 94.207C161.603 94.0432 160.934 93.8111 160.36 93.5108V91.4221C160.97 91.7224 161.698 91.9954 162.545 92.2412C163.391 92.4869 164.256 92.6098 165.138 92.6098C166.431 92.6098 167.368 92.4004 167.951 91.9818C168.533 91.5631 168.824 90.9943 168.824 90.2753C168.824 89.8658 168.706 89.5063 168.469 89.1969C168.242 88.8783 167.855 88.5734 167.309 88.2822C166.763 87.9819 166.007 87.6542 165.043 87.2993C164.087 86.9352 163.259 86.5757 162.558 86.2208C161.866 85.8568 161.33 85.4154 160.947 84.8966C160.574 84.3778 160.388 83.7044 160.388 82.8762C160.388 81.6111 160.897 80.6419 161.917 79.9684C162.945 79.2858 164.292 78.9445 165.957 78.9445C166.858 78.9445 167.7 79.0355 168.483 79.2175C169.275 79.3905 170.012 79.6271 170.695 79.9274L169.93 81.7431C169.311 81.4792 168.651 81.2562 167.951 81.0742C167.25 80.8921 166.535 80.8011 165.807 80.8011C164.761 80.8011 163.955 80.974 163.391 81.3199C162.836 81.6657 162.558 82.139 162.558 82.7397C162.558 83.2038 162.686 83.5861 162.94 83.8864C163.204 84.1867 163.623 84.4689 164.196 84.7328C164.77 84.9967 165.525 85.3062 166.463 85.6611C167.4 86.0069 168.21 86.3664 168.892 86.7396C169.575 87.1036 170.098 87.5496 170.462 88.0774C170.836 88.5962 171.022 89.2651 171.022 90.0842ZM186.762 92.5961C187.136 92.5961 187.518 92.5642 187.909 92.5005C188.301 92.4368 188.619 92.3595 188.865 92.2685V94.0295C188.601 94.1478 188.232 94.2479 187.759 94.3299C187.295 94.4118 186.84 94.4527 186.394 94.4527C185.602 94.4527 184.883 94.3162 184.237 94.0432C183.591 93.761 183.072 93.2878 182.681 92.6234C182.298 91.959 182.107 91.0398 182.107 89.8658V80.9922H179.978V79.8865L182.121 78.9991L183.022 75.75H184.387V79.2175H188.769V80.9922H184.387V89.7975C184.387 90.7349 184.601 91.4357 185.029 91.8999C185.466 92.364 186.043 92.5961 186.762 92.5961ZM194.162 72.9378V79.2858C194.162 79.6498 194.153 80.0184 194.134 80.3916C194.116 80.7556 194.084 81.0924 194.039 81.4018H194.189C194.498 80.8739 194.89 80.4325 195.363 80.0776C195.845 79.7135 196.391 79.4405 197.001 79.2585C197.611 79.0674 198.257 78.9718 198.94 78.9718C200.141 78.9718 201.142 79.1629 201.943 79.5452C202.753 79.9274 203.358 80.519 203.759 81.3199C204.168 82.1208 204.373 83.1583 204.373 84.4324V94.1797H202.134V84.5826C202.134 83.3358 201.847 82.4029 201.274 81.784C200.71 81.1652 199.841 80.8557 198.667 80.8557C197.556 80.8557 196.669 81.0696 196.005 81.4974C195.349 81.916 194.876 82.5349 194.585 83.354C194.303 84.1731 194.162 85.1742 194.162 86.3573V94.1797H191.895V72.9378H194.162ZM214.803 78.9445C216.077 78.9445 217.169 79.2266 218.079 79.7909C218.989 80.3552 219.686 81.147 220.168 82.1663C220.65 83.1765 220.891 84.3596 220.891 85.7157V87.1218H210.557C210.584 88.8783 211.021 90.2162 211.868 91.1354C212.714 92.0546 213.906 92.5142 215.444 92.5142C216.391 92.5142 217.228 92.4277 217.956 92.2548C218.684 92.0819 219.44 91.8271 220.222 91.4903V93.4835C219.467 93.8202 218.716 94.0659 217.97 94.2206C217.233 94.3754 216.359 94.4527 215.349 94.4527C213.911 94.4527 212.655 94.1615 211.581 93.579C210.516 92.9874 209.688 92.1228 209.096 90.9852C208.505 89.8476 208.209 88.4551 208.209 86.8078C208.209 85.1969 208.478 83.8045 209.015 82.6304C209.561 81.4473 210.325 80.5372 211.308 79.9001C212.3 79.263 213.465 78.9445 214.803 78.9445ZM214.775 80.8011C213.565 80.8011 212.6 81.197 211.881 81.9888C211.162 82.7806 210.735 83.8864 210.598 85.3062H218.516C218.507 84.4142 218.366 83.6316 218.093 82.9581C217.829 82.2755 217.424 81.7476 216.878 81.3745C216.332 80.9922 215.631 80.8011 214.775 80.8011ZM127.05 117.723H134.026V127.402C132.98 127.756 131.901 128.02 130.791 128.193C129.69 128.366 128.456 128.453 127.091 128.453C125.016 128.453 123.264 128.039 121.835 127.21C120.416 126.382 119.337 125.204 118.6 123.675C117.863 122.137 117.494 120.312 117.494 118.2C117.494 116.134 117.899 114.332 118.709 112.794C119.528 111.256 120.707 110.064 122.245 109.218C123.792 108.362 125.649 107.934 127.815 107.934C128.925 107.934 129.976 108.039 130.968 108.248C131.969 108.449 132.898 108.735 133.753 109.108L132.866 111.129C132.129 110.81 131.314 110.537 130.422 110.31C129.54 110.082 128.625 109.968 127.678 109.968C126.049 109.968 124.652 110.305 123.487 110.979C122.331 111.652 121.444 112.603 120.825 113.832C120.215 115.061 119.911 116.517 119.911 118.2C119.911 119.866 120.179 121.317 120.716 122.555C121.253 123.784 122.09 124.739 123.228 125.422C124.366 126.105 125.831 126.446 127.624 126.446C128.525 126.446 129.298 126.396 129.945 126.296C130.591 126.187 131.178 126.059 131.706 125.914V119.798H127.05V117.723ZM140.798 128.18H138.518V106.938H140.798V128.18ZM158.49 120.671C158.49 121.9 158.331 122.997 158.012 123.961C157.694 124.926 157.234 125.741 156.633 126.405C156.033 127.069 155.305 127.579 154.449 127.934C153.603 128.28 152.643 128.453 151.569 128.453C150.568 128.453 149.648 128.28 148.811 127.934C147.983 127.579 147.264 127.069 146.654 126.405C146.053 125.741 145.585 124.926 145.248 123.961C144.92 122.997 144.756 121.9 144.756 120.671C144.756 119.033 145.034 117.641 145.589 116.494C146.144 115.338 146.936 114.46 147.965 113.859C149.002 113.249 150.235 112.945 151.664 112.945C153.029 112.945 154.222 113.249 155.241 113.859C156.269 114.469 157.066 115.352 157.63 116.508C158.203 117.654 158.49 119.042 158.49 120.671ZM147.105 120.671C147.105 121.873 147.264 122.915 147.582 123.798C147.901 124.68 148.392 125.363 149.057 125.845C149.721 126.328 150.577 126.569 151.623 126.569C152.661 126.569 153.512 126.328 154.176 125.845C154.85 125.363 155.346 124.68 155.664 123.798C155.983 122.915 156.142 121.873 156.142 120.671C156.142 119.479 155.983 118.451 155.664 117.586C155.346 116.712 154.854 116.039 154.19 115.566C153.525 115.092 152.665 114.856 151.61 114.856C150.053 114.856 148.911 115.37 148.183 116.398C147.464 117.427 147.105 118.851 147.105 120.671ZM164.674 106.938V112.248C164.674 112.858 164.656 113.45 164.62 114.023C164.592 114.596 164.569 115.042 164.551 115.361H164.674C165.084 114.687 165.675 114.119 166.449 113.654C167.222 113.19 168.21 112.958 169.411 112.958C171.286 112.958 172.779 113.609 173.889 114.91C175.008 116.203 175.568 118.128 175.568 120.685C175.568 122.369 175.313 123.788 174.804 124.944C174.294 126.1 173.575 126.974 172.647 127.565C171.718 128.157 170.622 128.453 169.357 128.453C168.174 128.453 167.2 128.234 166.435 127.797C165.68 127.351 165.097 126.81 164.688 126.173H164.51L164.046 128.18H162.408V106.938H164.674ZM169.043 114.856C167.96 114.856 167.1 115.07 166.463 115.497C165.825 115.916 165.366 116.553 165.084 117.409C164.811 118.255 164.674 119.329 164.674 120.63V120.753C164.674 122.637 164.988 124.08 165.616 125.081C166.244 126.073 167.386 126.569 169.043 126.569C170.435 126.569 171.477 126.059 172.169 125.04C172.87 124.021 173.22 122.564 173.22 120.671C173.22 118.742 172.874 117.29 172.183 116.316C171.5 115.343 170.453 114.856 169.043 114.856ZM185.288 112.945C186.562 112.945 187.654 113.227 188.564 113.791C189.475 114.355 190.171 115.147 190.653 116.166C191.135 117.177 191.377 118.36 191.377 119.716V121.122H181.042C181.07 122.878 181.507 124.216 182.353 125.135C183.199 126.055 184.392 126.514 185.93 126.514C186.876 126.514 187.713 126.428 188.442 126.255C189.17 126.082 189.925 125.827 190.708 125.49V127.483C189.952 127.82 189.202 128.066 188.455 128.221C187.718 128.375 186.844 128.453 185.834 128.453C184.396 128.453 183.14 128.161 182.066 127.579C181.001 126.987 180.173 126.123 179.582 124.985C178.99 123.848 178.694 122.455 178.694 120.808C178.694 119.197 178.963 117.804 179.5 116.63C180.046 115.447 180.81 114.537 181.793 113.9C182.785 113.263 183.95 112.945 185.288 112.945ZM185.261 114.801C184.05 114.801 183.086 115.197 182.367 115.989C181.648 116.781 181.22 117.886 181.083 119.306H189.001C188.992 118.414 188.851 117.632 188.578 116.958C188.314 116.275 187.909 115.748 187.363 115.374C186.817 114.992 186.116 114.801 185.261 114.801Z" fill="url(#paint0_linear_1376_1515)"/>
<g clip-path="url(#clip0_1376_1515)">
<path fill-rule="evenodd" clip-rule="evenodd" d="M46.2811 11.9258C31.8956 26.3738 22.3205 46.6126 20.8421 69.4428C17.8286 116.204 49.9542 156.097 92.5988 158.551L92.2008 164.766C48.2598 162.231 15.1675 121.135 18.2721 72.9516C19.8528 48.4817 30.4627 26.9013 46.2924 11.9258H46.2811Z" fill="#ED923A" fill-opacity="0.3"/>
<path fill-rule="evenodd" clip-rule="evenodd" d="M65.2124 159.915C56.8996 162.632 51.9187 154.892 44.8795 153.666C37.8402 152.439 35.6341 156.67 30.9375 158.206C41.5589 166.749 53.0104 167.242 65.201 159.915H65.2124Z" fill="#ED923A" fill-opacity="0.3"/>
<path fill-rule="evenodd" clip-rule="evenodd" d="M50.2329 148.747C41.6357 149.573 38.1786 140.835 31.5375 138.049C24.8963 135.262 21.9851 138.943 17.1406 139.413C25.9652 150.203 37.0301 153.242 50.2329 148.747Z" fill="#ED923A" fill-opacity="0.3"/>
<path fill-rule="evenodd" clip-rule="evenodd" d="M34.3197 131.58C26.6323 130.926 24.7445 122.613 19.2633 119.081C13.7706 115.549 10.723 118.336 6.37891 117.969C12.7131 128.965 22.0721 133.449 34.331 131.58H34.3197Z" fill="#ED923A" fill-opacity="0.3"/>
<path fill-rule="evenodd" clip-rule="evenodd" d="M25.5621 114.966C18.5457 112.684 18.3069 104.508 13.8605 100.013C9.41404 95.5185 6.0707 97.4679 2.11328 96.1836C6.00247 107.834 13.8718 114.049 25.5735 114.955L25.5621 114.966Z" fill="#ED923A" fill-opacity="0.3"/>
<path fill-rule="evenodd" clip-rule="evenodd" d="M20.0373 97.9273C13.5098 94.3267 14.5788 86.2083 10.9284 80.9221C7.27802 75.636 3.6845 76.9202 0 74.8906C1.95597 87.1485 8.68814 94.7854 20.0373 97.9273Z" fill="#ED923A" fill-opacity="0.3"/>
<path fill-rule="evenodd" clip-rule="evenodd" d="M18.4053 79.3518C12.7875 74.272 15.4372 66.5664 12.9468 60.512C10.4563 54.4575 6.70358 54.8589 3.53081 51.9922C2.99633 64.468 8.01134 73.5725 18.4053 79.3518Z" fill="#ED923A" fill-opacity="0.3"/>
<path fill-rule="evenodd" clip-rule="evenodd" d="M20.5439 58.5845C16.8821 52.5071 21.0442 46.4986 20.3278 40.4671C19.6227 34.4241 16.268 33.7017 14.1983 30.2617C10.7299 41.0634 12.9019 50.5119 20.5439 58.5845Z" fill="#ED923A" fill-opacity="0.3"/>
<path fill-rule="evenodd" clip-rule="evenodd" d="M24.6658 40.9807C23.1078 34.6281 28.1797 30.7524 29.1236 25.3401C30.0674 19.9278 27.4064 18.2766 26.5308 14.6875C20.8221 22.9091 20.2535 31.6812 24.6771 40.9692L24.6658 40.9807Z" fill="#ED923A" fill-opacity="0.3"/>
<path fill-rule="evenodd" clip-rule="evenodd" d="M33.3761 26.6246C32.8303 21.7971 36.8787 19.5267 38.0613 15.6739C39.244 11.8211 37.4586 10.3075 37.1516 7.58984C32.2389 12.9792 30.9994 19.3318 33.3648 26.6246H33.3761Z" fill="#ED923A" fill-opacity="0.3"/>
<path fill-rule="evenodd" clip-rule="evenodd" d="M42.0039 14.9433C42.8341 10.7464 46.7801 10.1387 48.7702 7.30644C50.7717 4.47416 49.7027 2.65095 50.169 0.277344C44.6877 3.20135 41.9926 8.12057 42.0039 14.9433Z" fill="#ED923A" fill-opacity="0.3"/>
<path fill-rule="evenodd" clip-rule="evenodd" d="M76.7379 154.01C71.5864 147.899 75.0662 140.663 73.1671 134.15C71.268 127.625 67.4471 127.35 64.5358 123.91C62.705 136.306 66.833 146.339 76.7379 154.022V154.01Z" fill="#ED923A" fill-opacity="0.3"/>
<path fill-rule="evenodd" clip-rule="evenodd" d="M61.7659 146.705C56.7509 140.639 60.3103 133.403 58.5363 126.913C56.7622 120.423 52.9754 120.159 50.1438 116.742C48.131 129.103 52.077 139.091 61.7659 146.705Z" fill="#ED923A" fill-opacity="0.3"/>
<path fill-rule="evenodd" clip-rule="evenodd" d="M45.0549 132.886C41.8139 126.293 46.4991 120.64 46.2489 114.425C45.9988 108.199 42.6554 107.086 40.8245 103.371C36.4691 113.978 37.9475 123.828 45.0549 132.898V132.886Z" fill="#ED923A" fill-opacity="0.3"/>
<path fill-rule="evenodd" clip-rule="evenodd" d="M32.309 115.686C30.535 108.933 35.8798 104.678 36.8009 98.8762C37.7106 93.0741 34.8449 91.3655 33.8328 87.5586C27.8739 96.4568 27.4191 105.859 32.309 115.686Z" fill="#ED923A" fill-opacity="0.3"/>
<path fill-rule="evenodd" clip-rule="evenodd" d="M24.9398 94.6682C24.2461 88.4532 29.4772 85.5292 31.001 80.5641C32.5362 75.599 30.2391 73.6612 29.8525 70.1523C23.5069 77.0782 21.9035 85.2769 24.9398 94.6682Z" fill="#ED923A" fill-opacity="0.3"/>
<path fill-rule="evenodd" clip-rule="evenodd" d="M23.6506 72.8821C24.3556 67.2979 29.473 66.0594 31.8383 62.1264C34.2037 58.1933 32.6344 55.9229 33.021 52.7695C26.0955 57.2071 23.0024 63.9381 23.6506 72.8821Z" fill="#ED923A" fill-opacity="0.3"/>
<path fill-rule="evenodd" clip-rule="evenodd" d="M26.7891 52.3913C28.5517 47.7817 33.146 47.9996 35.9776 45.2247C38.7978 42.4382 37.9449 40.099 38.9343 37.4961C32.1339 39.5716 28.1082 44.5711 26.7891 52.3913Z" fill="#ED923A" fill-opacity="0.3"/>
<path fill-rule="evenodd" clip-rule="evenodd" d="M33.0703 36.7071C35.2423 33.0149 39.177 33.9895 42.02 32.0631C44.8516 30.1367 44.4422 27.958 45.6704 25.8711C39.5182 26.5018 35.3333 30.1482 33.0703 36.7071Z" fill="#ED923A" fill-opacity="0.3"/>
<path fill-rule="evenodd" clip-rule="evenodd" d="M40.9844 22.7368C43.0427 19.9389 46.1586 21.1085 48.6036 19.8128C51.0485 18.5171 50.9007 16.7053 52.0606 15.1229C47.0229 15.0427 43.3384 17.6112 40.9844 22.7253V22.7368Z" fill="#ED923A" fill-opacity="0.3"/>
<path fill-rule="evenodd" clip-rule="evenodd" d="M50.3906 9.78085C52.358 6.44404 55.906 7.32698 58.4647 5.58404C61.0234 3.85256 60.6595 1.88029 61.7625 -0.0117188C56.2017 0.55015 52.4262 3.85256 50.3906 9.76939V9.78085Z" fill="#ED923A" fill-opacity="0.3"/>
</g>
<g clip-path="url(#clip1_1376_1515)">
<path fill-rule="evenodd" clip-rule="evenodd" d="M262.578 11.9258C276.964 26.3738 286.539 46.6126 288.017 69.4428C291.031 116.204 258.905 156.097 216.261 158.551L216.659 164.766C260.6 162.231 293.692 121.135 290.587 72.9516C289.007 48.4817 278.397 26.9013 262.567 11.9258H262.578Z" fill="#ED923A" fill-opacity="0.3"/>
<path fill-rule="evenodd" clip-rule="evenodd" d="M243.655 159.915C251.968 162.632 256.949 154.892 263.988 153.666C271.027 152.439 273.233 156.67 277.93 158.206C267.308 166.749 255.857 167.242 243.666 159.915H243.655Z" fill="#ED923A" fill-opacity="0.3"/>
<path fill-rule="evenodd" clip-rule="evenodd" d="M258.642 148.747C267.239 149.573 270.696 140.835 277.338 138.049C283.979 135.262 286.89 138.943 291.734 139.413C282.91 150.203 271.845 153.242 258.642 148.747Z" fill="#ED923A" fill-opacity="0.3"/>
<path fill-rule="evenodd" clip-rule="evenodd" d="M274.551 131.58C282.239 130.926 284.127 122.613 289.608 119.081C295.1 115.549 298.148 118.336 302.492 117.969C296.158 128.965 286.799 133.449 274.54 131.58H274.551Z" fill="#ED923A" fill-opacity="0.3"/>
<path fill-rule="evenodd" clip-rule="evenodd" d="M283.301 114.966C290.318 112.684 290.556 104.508 295.003 100.013C299.449 95.5185 302.793 97.4679 306.75 96.1836C302.861 107.834 294.991 114.049 283.29 114.955L283.301 114.966Z" fill="#ED923A" fill-opacity="0.3"/>
<path fill-rule="evenodd" clip-rule="evenodd" d="M288.83 97.9273C295.357 94.3267 294.288 86.2083 297.939 80.9221C301.589 75.636 305.183 76.9202 308.867 74.8906C306.911 87.1485 300.179 94.7854 288.83 97.9273Z" fill="#ED923A" fill-opacity="0.3"/>
<path fill-rule="evenodd" clip-rule="evenodd" d="M290.45 79.3478C296.068 74.2681 293.418 66.5625 295.909 60.508C298.399 54.4536 302.152 54.855 305.325 51.9883C305.859 64.4641 300.844 73.5686 290.45 79.3478Z" fill="#ED923A" fill-opacity="0.3"/>
<path fill-rule="evenodd" clip-rule="evenodd" d="M288.331 58.5845C291.993 52.5071 287.831 46.4986 288.547 40.4671C289.252 34.4241 292.607 33.7017 294.677 30.2617C298.145 41.0634 295.973 50.5119 288.331 58.5845Z" fill="#ED923A" fill-opacity="0.3"/>
<path fill-rule="evenodd" clip-rule="evenodd" d="M284.201 40.9807C285.759 34.6281 280.687 30.7524 279.744 25.3401C278.8 19.9278 281.461 18.2766 282.336 14.6875C288.045 22.9091 288.614 31.6812 284.19 40.9692L284.201 40.9807Z" fill="#ED923A" fill-opacity="0.3"/>
<path fill-rule="evenodd" clip-rule="evenodd" d="M275.487 26.6246C276.033 21.7971 271.985 19.5267 270.802 15.6739C269.619 11.8211 271.405 10.3075 271.712 7.58984C276.624 12.9792 277.864 19.3318 275.499 26.6246H275.487Z" fill="#ED923A" fill-opacity="0.3"/>
<path fill-rule="evenodd" clip-rule="evenodd" d="M266.859 14.9433C266.029 10.7464 262.083 10.1387 260.093 7.30644C258.092 4.47416 259.161 2.65095 258.694 0.277344C264.176 3.20135 266.871 8.12057 266.859 14.9433Z" fill="#ED923A" fill-opacity="0.3"/>
<path fill-rule="evenodd" clip-rule="evenodd" d="M232.133 154.01C237.285 147.899 233.805 140.663 235.704 134.15C237.603 127.625 241.424 127.35 244.335 123.91C246.166 136.306 242.038 146.339 232.133 154.022V154.01Z" fill="#ED923A" fill-opacity="0.3"/>
<path fill-rule="evenodd" clip-rule="evenodd" d="M247.093 146.705C252.109 140.639 248.549 133.403 250.323 126.913C252.097 120.423 255.884 120.159 258.716 116.742C260.728 129.103 256.782 139.091 247.093 146.705Z" fill="#ED923A" fill-opacity="0.3"/>
<path fill-rule="evenodd" clip-rule="evenodd" d="M263.812 132.886C267.053 126.293 262.368 120.64 262.618 114.425C262.868 108.199 266.212 107.086 268.043 103.371C272.398 113.978 270.92 123.828 263.812 132.898V132.886Z" fill="#ED923A" fill-opacity="0.3"/>
<path fill-rule="evenodd" clip-rule="evenodd" d="M276.558 115.686C278.332 108.933 272.987 104.678 272.066 98.8762C271.157 93.0741 274.022 91.3655 275.034 87.5586C280.993 96.4568 281.448 105.859 276.558 115.686Z" fill="#ED923A" fill-opacity="0.3"/>
<path fill-rule="evenodd" clip-rule="evenodd" d="M283.927 94.6682C284.621 88.4532 279.39 85.5292 277.866 80.5641C276.331 75.599 278.628 73.6612 279.015 70.1523C285.36 77.0782 286.964 85.2769 283.927 94.6682Z" fill="#ED923A" fill-opacity="0.3"/>
<path fill-rule="evenodd" clip-rule="evenodd" d="M285.213 72.8821C284.508 67.2979 279.39 66.0594 277.025 62.1264C274.66 58.1933 276.229 55.9229 275.842 52.7695C282.768 57.2071 285.861 63.9381 285.213 72.8821Z" fill="#ED923A" fill-opacity="0.3"/>
<path fill-rule="evenodd" clip-rule="evenodd" d="M282.078 52.3913C280.315 47.7817 275.721 47.9996 272.89 45.2247C270.069 42.4382 270.922 40.099 269.933 37.4961C276.733 39.5716 280.759 44.5711 282.078 52.3913Z" fill="#ED923A" fill-opacity="0.3"/>
<path fill-rule="evenodd" clip-rule="evenodd" d="M275.801 36.7071C273.629 33.0149 269.694 33.9895 266.851 32.0631C264.019 30.1367 264.429 27.958 263.201 25.8711C269.353 26.5018 273.538 30.1482 275.801 36.7071Z" fill="#ED923A" fill-opacity="0.3"/>
<path fill-rule="evenodd" clip-rule="evenodd" d="M267.879 22.7368C265.821 19.9389 262.705 21.1085 260.26 19.8128C257.815 18.5171 257.963 16.7053 256.803 15.1229C261.84 15.0427 265.525 17.6112 267.879 22.7253V22.7368Z" fill="#ED923A" fill-opacity="0.3"/>
<path fill-rule="evenodd" clip-rule="evenodd" d="M258.477 9.78085C256.509 6.44404 252.961 7.32698 250.403 5.58404C247.844 3.85256 248.208 1.88029 247.105 -0.0117188C252.666 0.55015 256.441 3.85256 258.477 9.76939V9.78085Z" fill="#ED923A" fill-opacity="0.3"/>
</g>
<defs>
<linearGradient id="paint0_linear_1376_1515" x1="57.0391" y1="83.1797" x2="251.586" y2="83.1797" gradientUnits="userSpaceOnUse">
<stop stop-color="#010E39"/>
<stop offset="1" stop-color="#0344A2"/>
</linearGradient>
<clipPath id="clip0_1376_1515">
<rect width="92.59" height="165.052" fill="white"/>
</clipPath>
<clipPath id="clip1_1376_1515">
<rect width="92.59" height="165.052" fill="white" transform="matrix(-1 0 0 1 308.867 0)"/>
</clipPath>
</defs>
</svg>
